<?xml version="1.0" encoding="UTF-8" standalone="no"?>
<!-- Created with Inkscape (http://www.inkscape.org/) -->

<svg
   xmlns:dc="http://purl.org/dc/elements/1.1/"
   xmlns:cc="http://creativecommons.org/ns#"
   xmlns:rdf="http://www.w3.org/1999/02/22-rdf-syntax-ns#"
   xmlns:svg="http://www.w3.org/2000/svg"
   xmlns="http://www.w3.org/2000/svg"
   xmlns:sodipodi="http://sodipodi.sourceforge.net/DTD/sodipodi-0.dtd"
   xmlns:inkscape="http://www.inkscape.org/namespaces/inkscape"
   id="svg3058"
   version="1.1"
   inkscape:version="0.48.2 r9819"
   width="128"
   height="128"
   sodipodi:docname="cbmenu.svg">
  <metadata
     id="metadata3064">
    <rdf:RDF>
      <cc:Work
         rdf:about="">
        <dc:format>image/svg+xml</dc:format>
        <dc:type
           rdf:resource="http://purl.org/dc/dcmitype/StillImage" />
        <dc:title />
      </cc:Work>
    </rdf:RDF>
  </metadata>
  <defs
     id="defs3062" />
  <sodipodi:namedview
     pagecolor="#ffffff"
     bordercolor="#666666"
     borderopacity="1"
     objecttolerance="10"
     gridtolerance="10"
     guidetolerance="10"
     inkscape:pageopacity="0"
     inkscape:pageshadow="2"
     inkscape:window-width="1680"
     inkscape:window-height="945"
     id="namedview3060"
     showgrid="false"
     inkscape:zoom="1.84375"
     inkscape:cx="-30.566783"
     inkscape:cy="86.769085"
     inkscape:window-x="-4"
     inkscape:window-y="35"
     inkscape:window-maximized="1"
     inkscape:current-layer="g3068" />
  <g
     id="g3068"
     transform="translate(-28.203395,-53.694915)">
    <path
       style="fill:#fefefe;display:none"
       d="m 28.067797,118.37288 0,-63.999997 64,0 64.000003,0 0,63.999997 0,64 -64.000003,0 -64,0 0,-64 z"
       id="path3116"
       inkscape:connector-curvature="0" />
    <path
       style="fill:#d1d1d1"
       d="M 102.0678,171.31843 C 84.742797,170.9459 64.192252,170.58075 56.399919,170.50699 l -14.167878,-0.13411 -2.690797,-8.07973 -2.690797,-8.07973 2.358675,-1.61938 c 5.247716,-3.60289 15.388216,-14.07789 19.091398,-19.72116 5.071743,-7.7288 4.85071,-11.66279 -1.174912,-20.91127 C 46.399987,95.499299 46.454892,83.631347 57.314525,71.126851 l 3.253272,-3.746033 40.672933,-0.662923 40.67294,-0.662924 2.1906,7.212084 c 1.20484,3.966647 2.02701,7.300677 1.82707,7.408956 -0.19995,0.10828 -1.70703,0.885474 -3.34908,1.727099 -6.38771,3.274002 -7.30411,11.483929 -2.37174,21.24829 8.58803,17.00131 10.92586,32.55247 6.89077,45.83713 -3.44372,11.3377 -9.84288,23.09603 -12.35158,22.69579 -0.65005,-0.10371 -15.35691,-0.49336 -32.68191,-0.86589 z"
       id="path3114"
       inkscape:connector-curvature="0" />
    <path
       style="fill:#a2a2a2"
       d="m 66.103175,170.40073 -23.464622,-0.52785 -2.776531,-7.5 -2.776531,-7.5 5.741153,-4.98297 c 8.417269,-7.30568 13.017282,-12.38929 16.303088,-18.01703 3.956259,-6.77604 3.814799,-10.66849 -0.656299,-18.05883 C 50.6321,100.85301 49.652635,98.318184 49.608909,90.872883 49.560865,82.692525 52.115792,76.633601 57.965942,71.054462 l 3.601855,-3.434998 40.145663,-0.646111 40.14567,-0.646111 2.10434,6.928058 c 1.15738,3.810431 2.10433,7.139451 2.10433,7.39782 0,0.25837 -1.33062,0.735887 -2.95694,1.061151 -3.27405,0.654811 -5.44031,3.928737 -6.56448,9.921113 -0.5777,3.079404 -0.0981,4.842725 2.88497,10.607116 7.93204,15.3276 11.25813,31.88904 8.6815,43.22746 -0.67528,2.97161 -3.44466,10.01542 -6.15417,15.65292 l -4.92638,10.25 -23.73225,-0.22215 c -13.05274,-0.12218 -34.291333,-0.45968 -47.196875,-0.75 z"
       id="path3112"
       inkscape:connector-curvature="0" />
    <path
       style="fill:#3da2e8"
       d="m 70.899386,170.40402 c -15.217625,-0.29213 -27.856712,-0.75614 -28.086859,-1.03114 -0.230147,-0.275 -1.587135,-3.70805 -3.015529,-7.62899 l -2.597081,-7.12899 6.510065,-5.28191 c 6.735412,-5.46474 14.325266,-14.0627 17.028619,-19.29041 2.430601,-4.70026 1.319524,-11.33877 -2.982518,-17.82007 -6.096104,-9.18417 -8.117659,-14.610502 -8.139976,-21.849627 -0.01632,-5.292295 0.508799,-7.458888 2.826226,-11.660838 1.565446,-2.838461 4.259085,-6.52848 5.985865,-8.200042 l 3.139599,-3.039204 40.000003,-0.183851 40,-0.183851 2.17689,6.383893 c 2.76887,8.119902 2.81372,7.535771 -0.63151,8.224817 -3.66818,0.733636 -5.84801,3.939944 -6.64835,9.779051 -0.53626,3.912437 -0.10174,5.512121 3.37771,12.435042 11.341,22.56474 11.75698,37.64351 1.60543,58.19498 l -4.5691,9.25 -19.15554,-0.21886 c -10.53554,-0.12037 -31.606318,-0.45787 -46.823944,-0.75 z"
       id="path3110"
       inkscape:connector-curvature="0" />
    <path
       style="fill:#399ee4"
       d="m 70.899386,170.40402 c -15.217625,-0.29213 -27.856712,-0.75614 -28.086859,-1.03114 -0.230147,-0.275 -1.587135,-3.70805 -3.015529,-7.62899 l -2.597081,-7.12899 6.510065,-5.28191 c 6.735412,-5.46474 14.325266,-14.0627 17.028619,-19.29041 2.430601,-4.70026 1.319524,-11.33877 -2.982518,-17.82007 -6.096104,-9.18417 -8.117659,-14.610502 -8.139976,-21.849627 -0.01632,-5.292295 0.508799,-7.458888 2.826226,-11.660838 1.565446,-2.838461 4.259085,-6.52848 5.985865,-8.200042 l 3.139599,-3.039204 40.000003,-0.183851 40,-0.183851 2.17689,6.383893 c 2.76887,8.119902 2.81372,7.535771 -0.63151,8.224817 -3.66818,0.733636 -5.84801,3.939944 -6.64835,9.779051 -0.53626,3.912437 -0.10174,5.512121 3.37771,12.435042 11.341,22.56474 11.75698,37.64351 1.60543,58.19498 l -4.5691,9.25 -19.15554,-0.21886 c -10.53554,-0.12037 -31.606318,-0.45787 -46.823944,-0.75 z M 130.5678,116.72254 c -9.34478,-0.70303 -53.501064,-0.78528 -53.500557,-0.0997 3.04e-4,0.4125 12.938054,0.67138 28.750557,0.5753 15.8125,-0.0961 26.95,-0.31013 24.75,-0.47564 z"
       id="path3108"
       inkscape:connector-curvature="0" />
    <path
       style="fill:#3498de"
       d="m 70.899386,170.40402 c -15.217625,-0.29213 -27.856712,-0.75614 -28.086859,-1.03114 -0.230147,-0.275 -1.587135,-3.70805 -3.015529,-7.62899 l -2.597081,-7.12899 6.510065,-5.28191 c 6.735412,-5.46474 14.325266,-14.0627 17.028619,-19.29041 2.430601,-4.70026 1.319524,-11.33877 -2.982518,-17.82007 -6.096104,-9.18417 -8.117659,-14.610502 -8.139976,-21.849627 -0.01632,-5.292295 0.508799,-7.458888 2.826226,-11.660838 1.565446,-2.838461 4.259085,-6.52848 5.985865,-8.200042 l 3.139599,-3.039204 40.000003,-0.183851 40,-0.183851 2.17689,6.383893 c 2.76887,8.119902 2.81372,7.535771 -0.63151,8.224817 -3.66818,0.733636 -5.84801,3.939944 -6.64835,9.779051 -0.53626,3.912437 -0.10174,5.512121 3.37771,12.435042 11.341,22.56474 11.75698,37.64351 1.60543,58.19498 l -4.5691,9.25 -19.15554,-0.21886 c -10.53554,-0.12037 -31.606318,-0.45787 -46.823944,-0.75 z m 61.615344,-19.94526 c 0.31074,-0.50279 -2.70004,-1.16605 -6.69099,-1.474 -12.62808,-0.97438 -74.793822,-1.35961 -75.345551,-0.46689 -0.697317,1.12828 -2.115675,1.02218 24.089608,1.8021 36.326593,1.08115 57.333423,1.13147 57.946933,0.13879 z M 106.5678,129.39483 c -17.600003,-0.32448 -32.900003,-0.26569 -34.000003,0.13066 -1.1,0.39634 13.3,0.66183 32.000003,0.58997 l 34,-0.13066 -32,-0.58997 z m 27.5,-11.86639 c 0,-1.00262 -22.72967,-2.14676 -42.750003,-2.1519 -12.001626,-0.003 -14.25,0.23301 -14.25,1.49634 0,1.29825 3.833333,1.5 28.500003,1.5 15.675,0 28.5,-0.38 28.5,-0.84444 z M 73.817797,90.683557 c -0.9625,-0.251527 -2.5375,-0.251527 -3.5,0 -0.9625,0.251528 -0.175,0.457323 1.75,0.457323 1.925,0 2.7125,-0.205795 1.75,-0.457323 z m 11.5,-0.03407 c -1.7875,-0.221826 -4.7125,-0.221826 -6.5,0 -1.7875,0.221827 -0.325,0.403322 3.25,0.403322 3.575,0 5.0375,-0.181495 3.25,-0.403322 z"
       id="path3106"
       inkscape:connector-curvature="0" />
    <path
       style="fill:#2d91d7"
       d="m 70.899386,170.40402 c -15.217625,-0.29213 -27.856712,-0.75614 -28.086859,-1.03114 -0.230147,-0.275 -1.587135,-3.70805 -3.015529,-7.62899 l -2.597081,-7.12899 6.510065,-5.28191 c 6.735412,-5.46474 14.325266,-14.0627 17.028619,-19.29041 2.430601,-4.70026 1.319524,-11.33877 -2.982518,-17.82007 -6.096104,-9.18417 -8.117659,-14.610502 -8.139976,-21.849627 -0.01632,-5.292295 0.508799,-7.458888 2.826226,-11.660838 1.565446,-2.838461 4.259085,-6.52848 5.985865,-8.200042 l 3.139599,-3.039204 40.000003,-0.183851 40,-0.183851 2.17689,6.383893 c 2.76887,8.119902 2.81372,7.535771 -0.63151,8.224817 -3.66818,0.733636 -5.84801,3.939944 -6.64835,9.779051 -0.53626,3.912437 -0.10174,5.512121 3.37771,12.435042 11.341,22.56474 11.75698,37.64351 1.60543,58.19498 l -4.5691,9.25 -19.15554,-0.21886 c -10.53554,-0.12037 -31.606318,-0.45787 -46.823944,-0.75 z m 61.501944,-19.45791 c 0.78483,-2.04526 -5.79673,-2.45389 -46.588416,-2.8926 -28.259819,-0.30393 -34.963736,-0.12213 -35.872445,0.97279 -0.927791,1.11792 1.492793,1.36959 14.254883,1.4821 15.174615,0.13378 61.356558,1.31676 65.515458,1.67823 1.17866,0.10244 2.38939,-0.4558 2.69052,-1.24052 z m 3.66647,-9.41371 c 0,-0.91406 -35.52807,-2.15952 -61.602593,-2.15952 -22.217705,0 -22.787757,1.85645 -0.69136,2.2515 40.356553,0.72152 62.293953,0.68913 62.293953,-0.092 z m 2,-11.07377 c 0,-0.52579 -13.49036,-1.06292 -31.75,-1.26414 -32.601769,-0.35928 -44.660459,0.25183 -24.250003,1.22893 20.295723,0.97161 56.000003,0.99406 56.000003,0.0352 z m -19.22688,-10.97409 16.27313,-0.61166 -1.57983,-2.25 c -1.57302,-2.24029 -1.69817,-2.25 -29.02313,-2.25 -28.985177,0 -28.558676,-0.0702 -26.836304,4.41822 0.672162,1.75162 9.194167,1.89518 41.166134,0.69344 z m 3.53589,-13.99618 c 2.92612,-0.0703 4.56704,-0.50701 4.19099,-1.11548 -0.38894,-0.62931 -11.32405,-1 -29.500003,-1 -27.245481,0 -31.127301,0.35996 -29.656492,2.75 0.253849,0.4125 11.642906,0.46447 25.309017,0.11548 13.666108,-0.34898 27.011528,-0.68648 29.656488,-0.75 z m 0.51054,-13.011123 c 0.31907,-2.101208 0.27265,-2.104354 -31.050002,-2.104354 -30.685579,0 -33.769551,0.286724 -33.769551,3.139635 0,1.209946 6.027373,1.41736 36,1.23883 28.140503,-0.167616 28.504033,-0.196302 28.819553,-2.274111 z m -14.31955,-12.051811 9,-0.735683 -11.08919,-0.15843 c -6.09906,-0.08714 -19.93656,-0.454737 -30.750004,-0.81689 -13.873422,-0.464636 -19.660809,-0.339039 -19.660809,0.426675 0,0.596825 0.7875,1.290932 1.75,1.542459 2.823666,0.737902 40.936528,0.544047 50.750003,-0.258131 z"
       id="path3104"
       inkscape:connector-curvature="0" />
    <path
       style="fill:#2185cb"
       d="m 70.899386,170.40402 c -15.217625,-0.29213 -27.856712,-0.75614 -28.086859,-1.03114 -0.230147,-0.275 -1.587135,-3.70805 -3.015529,-7.62899 l -2.597081,-7.12899 6.510065,-5.28191 c 6.735412,-5.46474 14.325266,-14.0627 17.028619,-19.29041 2.430601,-4.70026 1.319524,-11.33877 -2.982518,-17.82007 -6.096104,-9.18417 -8.117659,-14.610502 -8.139976,-21.849627 -0.01632,-5.292295 0.508799,-7.458888 2.826226,-11.660838 1.565446,-2.838461 4.259085,-6.52848 5.985865,-8.200042 l 3.139599,-3.039204 40.000003,-0.183851 40,-0.183851 2.17689,6.383893 c 2.76887,8.119902 2.81372,7.535771 -0.63151,8.224817 -3.66818,0.733636 -5.84801,3.939944 -6.64835,9.779051 -0.53626,3.912437 -0.10174,5.512121 3.37771,12.435042 11.341,22.56474 11.75698,37.64351 1.60543,58.19498 l -4.5691,9.25 -19.15554,-0.21886 c -10.53554,-0.12037 -31.606318,-0.45787 -46.823944,-0.75 z m 61.515924,-19.49436 c 0.84828,-2.21058 -2.05901,-2.40058 -44.066717,-2.87986 -31.793444,-0.36274 -38.413097,-0.20243 -39.372445,0.95351 -0.970696,1.16962 0.488595,1.41075 9.219204,1.52338 11.763742,0.15177 63.215488,1.39452 69.515458,1.67907 2.84558,0.12852 4.31885,-0.2711 4.7045,-1.2761 z m 3.65249,-9.42261 c 0,-0.99227 -50.507241,-2.44603 -67.418649,-1.94054 -7.60406,0.2273 -11.044533,0.70584 -11.333333,1.57637 -0.327083,0.98593 7.947479,1.25 39.168646,1.25 22.321296,0 39.583336,-0.3863 39.583336,-0.88583 z m 2,-10.45802 c 0,-1.08231 -6.19003,-1.48002 -31.80496,-2.04346 -17.492729,-0.38479 -32.567729,-0.4069 -33.500002,-0.0491 -4.280912,1.64274 -0.57363,2.40624 13.054959,2.68861 42.652203,0.88372 52.250003,0.77424 52.250003,-0.596 z m -3.72121,-13.19772 -1.64921,-3.45843 -28.24499,0 -28.244982,0 0.930195,3.2434 c 0.511607,1.78387 0.930194,3.34313 0.930194,3.46502 0,0.49698 21.672151,0.77332 39.214003,0.50001 l 18.714,-0.29157 -1.64921,-3.45843 z m -7.27879,-12.45843 c -1.03319,-1.93053 -2.09383,-2 -30.535187,-2 -23.887347,0 -29.464816,0.25239 -29.464816,1.33334 0,0.73333 0.3,1.63333 0.666667,2 0.366666,0.36666 14.107499,0.66666 30.535183,0.66666 29.558643,0 29.857413,-0.0207 28.798153,-2 z m -20.75,-9.635815 16.75,-0.594967 0,-2.384608 0,-2.384607 -31.980951,0 -31.980948,0 -0.613195,2.443165 c -1.157062,4.610103 -0.261043,4.843474 15.958252,4.156377 8.314261,-0.352216 22.654339,-0.908128 31.866842,-1.23536 z m 12.5,-14.321044 c 3.4375,-0.02373 6.25,-0.428439 6.25,-0.899363 0,-0.470924 -15.36138,-1.185673 -34.136394,-1.588332 -34.765196,-0.745591 -35.783853,-0.667204 -35.848296,2.758579 -0.0084,0.447711 12.922187,0.579623 28.734687,0.293137 15.8125,-0.286486 31.562503,-0.540296 35.000003,-0.564021 z"
       id="path3102"
       inkscape:connector-curvature="0" />
    <path
       style="fill:#1a7dc3"
       d="m 70.899386,170.40402 c -15.217625,-0.29213 -27.856712,-0.75614 -28.086859,-1.03114 -0.230147,-0.275 -1.587135,-3.70805 -3.015529,-7.62899 l -2.597081,-7.12899 6.510065,-5.28191 c 6.735412,-5.46474 14.325266,-14.0627 17.028619,-19.29041 2.430601,-4.70026 1.319524,-11.33877 -2.982518,-17.82007 -6.096104,-9.18417 -8.117659,-14.610502 -8.139976,-21.849627 -0.01632,-5.292295 0.508799,-7.458888 2.826226,-11.660838 1.565446,-2.838461 4.259085,-6.52848 5.985865,-8.200042 l 3.139599,-3.039204 40.000003,-0.183851 40,-0.183851 2.17689,6.383893 c 2.76887,8.119902 2.81372,7.535771 -0.63151,8.224817 -3.66818,0.733636 -5.84801,3.939944 -6.64835,9.779051 -0.53626,3.912437 -0.10174,5.512121 3.37771,12.435042 11.341,22.56474 11.75698,37.64351 1.60543,58.19498 l -4.5691,9.25 -19.15554,-0.21886 c -10.53554,-0.12037 -31.606318,-0.45787 -46.823944,-0.75 z m 61.947444,-20.12134 c 0.27426,-1.42493 -3.98565,-1.65421 -40.986483,-2.20603 l -41.29255,-0.61583 -2.488074,2.46683 -2.488074,2.46683 43.474557,-0.2608 c 38.813664,-0.23284 43.507374,-0.43128 43.780624,-1.851 z m 2.87589,-7.45293 c 0.32569,-0.84872 0.37851,-1.75677 0.11739,-2.01789 -0.26112,-0.26112 -17.62063,-0.76431 -38.576696,-1.11819 -38.361125,-0.64781 -41.195617,-0.45659 -41.195617,2.7791 0,0.82582 12.787394,1.19631 57.781383,1.67412 18.39694,0.19536 21.36165,0.0168 21.87354,-1.31714 z m -6.5816,-9.45687 c 8.02442,0 8.92668,-0.18732 8.92668,-1.85326 0,-1.58651 -1.10124,-1.94635 -7.65088,-2.5 -4.20798,-0.35571 -18.80084,-0.64674 -32.428572,-0.64674 -21.191843,0 -25.005112,0.22742 -26.349122,1.57143 -0.864286,0.86429 -1.571429,1.98929 -1.571429,2.5 0,0.54616 10.089744,0.92857 24.5,0.92857 22.622473,0 24.508893,0.13411 24.616003,1.75 0.11048,1.66667 0.13778,1.66667 0.57332,0 0.39247,-1.50182 1.72329,-1.75 9.384,-1.75 z m -32.323323,-8.74155 c -3.7125,-0.1924 -9.7875,-0.1924 -13.5,0 -3.7125,0.19241 -0.675,0.34983 6.75,0.34983 7.425,0 10.462503,-0.15742 6.75,-0.34983 z m 39.250003,-2.38481 c 0,-0.44318 -0.75835,-2.39605 -1.68521,-4.33971 l -1.68521,-3.53393 -28.37381,0 c -17.682122,0 -28.152383,0.35827 -27.786189,0.95079 0.32319,0.52293 0.643512,2.43543 0.711827,4.25 l 0.124208,3.29921 29.347194,0.0897 c 16.14095,0.0493 29.34719,-0.27289 29.34719,-0.71607 z m -14.25702,-14.48254 c 5.7771,-0.50783 6.16626,-0.69215 5.21482,-2.46994 -0.97839,-1.82814 -2.4547,-1.92116 -30.492987,-1.92116 -20.188257,0 -29.464816,0.33554 -29.464816,1.06574 0,0.58616 0.433795,1.8763 0.963988,2.86697 0.895797,1.67382 2.611203,1.77315 24.25,1.40421 12.807305,-0.21837 26.095355,-0.64398 29.528995,-0.94582 z m -7.99298,-9.935597 9.25,-0.693338 0,-3.394934 0,-3.394934 -32.250003,0.263853 -32.25,0.263853 -0.317135,2.757389 c -0.233885,2.033549 0.216963,2.954965 1.717454,3.510033 2.793214,1.033277 42.479014,1.540373 53.849684,0.688078 z m 10.79344,-15.592372 c 0.35154,-1.107617 0.47937,-2.173653 0.28405,-2.368968 -0.19532,-0.195315 -15.70953,-0.678738 -34.47604,-1.074273 -33.916014,-0.714836 -34.12762,-0.706641 -35.236188,1.364738 -0.613396,1.14614 -1.115265,2.299459 -1.115265,2.562931 0,0.263471 7.0875,0.570277 15.75,0.681792 8.6625,0.111514 19.575,0.488031 24.25,0.836703 4.675,0.348672 13.315963,0.493769 19.202133,0.322438 9.7031,-0.282432 10.7618,-0.499503 11.34131,-2.325361 z"
       id="path3100"
       inkscape:connector-curvature="0" />
    <path
       style="fill:#2977ae"
       d="m 70.899386,170.40402 c -15.217625,-0.29213 -27.856712,-0.75614 -28.086859,-1.03114 -0.230147,-0.275 -1.587135,-3.70805 -3.015529,-7.62899 l -2.597081,-7.12899 6.510065,-5.28191 c 6.735412,-5.46474 14.325266,-14.0627 17.028619,-19.29041 2.430601,-4.70026 1.319524,-11.33877 -2.982518,-17.82007 -6.096104,-9.18417 -8.117659,-14.610502 -8.139976,-21.849627 -0.01632,-5.292295 0.508799,-7.458888 2.826226,-11.660838 1.565446,-2.838461 4.259085,-6.52848 5.985865,-8.200042 l 3.139599,-3.039204 40.000003,-0.183851 40,-0.183851 2.17689,6.383893 c 2.76887,8.119902 2.81372,7.535771 -0.63151,8.224817 -3.66818,0.733636 -5.84801,3.939944 -6.64835,9.779051 -0.53626,3.912437 -0.10174,5.512121 3.37771,12.435042 11.341,22.56474 11.75698,37.64351 1.60543,58.19498 l -4.5691,9.25 -19.15554,-0.21886 c -10.53554,-0.12037 -31.606318,-0.45787 -46.823944,-0.75 z m 61.947444,-20.12134 c 0.27426,-1.42493 -3.98565,-1.65421 -40.986483,-2.20603 l -41.29255,-0.61583 -2.488074,2.46683 -2.488074,2.46683 43.474557,-0.2608 c 38.813664,-0.23284 43.507374,-0.43128 43.780624,-1.851 z m 2.74489,-6.98516 c 0.36228,-1.14145 0.45761,-2.27644 0.21184,-2.52221 -0.24577,-0.24577 -17.72436,-0.73235 -38.841312,-1.08128 -35.215356,-0.58189 -38.509751,-0.49525 -39.786952,1.04638 -0.765875,0.92444 -1.188457,1.88485 -0.93907,2.13424 0.249387,0.24938 16.851013,0.84237 36.892501,1.31775 20.041493,0.47538 37.646253,0.93547 39.121683,1.02241 1.91862,0.11305 2.87021,-0.43298 3.34131,-1.91729 z m -15.52392,-8.42464 c 0,-1.22222 1.66666,-1.5 9,-1.5 8.0958,0 9,-0.18619 9,-1.85326 0,-1.58651 -1.10124,-1.94635 -7.65088,-2.5 -4.20798,-0.35571 -18.80084,-0.64674 -32.428572,-0.64674 -21.191843,0 -25.005112,0.22742 -26.349122,1.57143 -0.864286,0.86429 -1.571429,1.98929 -1.571429,2.5 0,0.54627 10.130893,0.92857 24.606989,0.92857 21.462034,0 24.533424,0.19171 24.031384,1.5 -0.31658,0.825 -0.13973,1.5 0.39301,1.5 0.53274,0 0.96862,-0.675 0.96862,-1.5 z m -11.25,-10.24621 c -5.9125,-0.1768 -15.587503,-0.1768 -21.500003,0 -5.9125,0.1768 -1.075,0.32145 10.75,0.32145 11.825003,0 16.662503,-0.14465 10.750003,-0.32145 z m 27.25,-2.2238 c 0,-0.52917 -0.75835,-2.5524 -1.68521,-4.49606 l -1.68521,-3.53393 -28.37381,0 c -17.682122,0 -28.152383,0.35827 -27.786189,0.95079 0.32319,0.52293 0.646919,2.52819 0.719398,4.45614 l 0.13178,3.50535 29.339621,0.0399 c 18.15104,0.0247 29.33962,-0.32699 29.33962,-0.92222 z m -8.16898,-14.58284 c 0.18206,-0.15172 -0.17127,-1.21439 -0.78519,-2.3615 -1.09271,-2.04175 -1.73633,-2.08565 -30.581017,-2.08565 -20.188257,0 -29.464816,0.33554 -29.464816,1.06574 0,0.58616 0.459293,1.92394 1.02065,2.97285 0.980065,1.83127 2.182927,1.88279 30.25,1.29575 16.076143,-0.33624 29.378313,-0.73548 29.560373,-0.88719 z m -13.08102,-10.071643 8.25,-0.555042 0,-3.424084 0,-3.424084 -32.250003,0.263853 -32.25,0.263853 -0.334665,2.365335 c -0.184066,1.300934 0.173923,2.875934 0.79553,3.5 2.058479,2.06662 32.022063,2.609168 55.789138,1.010169 z m 9.73747,-15.181632 c 0.33543,-1.336428 0.46925,-2.570486 0.29738,-2.74235 -0.17186,-0.171865 -15.66689,-0.6361 -34.4334,-1.031635 -33.916014,-0.714836 -34.12762,-0.706641 -35.236188,1.364738 -0.613396,1.14614 -1.115265,2.338476 -1.115265,2.649634 0,0.311157 5.0625,0.626756 11.25,0.70133 6.1875,0.07457 16.65,0.412074 23.25,0.75 6.6,0.337926 17.259963,0.642253 23.688813,0.676282 11.56642,0.06122 11.69519,0.03643 12.29866,-2.367999 z"
       id="path3098"
       inkscape:connector-curvature="0" />
    <path
       style="fill:#1477bc"
       d="m 70.899386,170.40402 c -15.217625,-0.29213 -27.856712,-0.75614 -28.086859,-1.03114 -0.230147,-0.275 -1.587135,-3.70805 -3.015529,-7.62899 l -2.597081,-7.12899 6.510065,-5.28191 c 6.735412,-5.46474 14.325266,-14.0627 17.028619,-19.29041 2.430601,-4.70026 1.319524,-11.33877 -2.982518,-17.82007 -6.096104,-9.18417 -8.117659,-14.610502 -8.139976,-21.849627 -0.01632,-5.292295 0.508799,-7.458888 2.826226,-11.660838 1.565446,-2.838461 4.259085,-6.52848 5.985865,-8.200042 l 3.139599,-3.039204 40.000003,-0.183851 40,-0.183851 2.17689,6.383893 c 2.76887,8.119902 2.81372,7.535771 -0.63151,8.224817 -3.66818,0.733636 -5.84801,3.939944 -6.64835,9.779051 -0.53626,3.912437 -0.10174,5.512121 3.37771,12.435042 11.341,22.56474 11.75698,37.64351 1.60543,58.19498 l -4.5691,9.25 -19.15554,-0.21886 c -10.53554,-0.12037 -31.606318,-0.45787 -46.823944,-0.75 z M 132.9847,150.52816 c 0.94946,-1.77409 -0.60626,-1.872 -40.634797,-2.5573 l -41.622057,-0.71257 -2.557297,2.5573 -2.557297,2.55729 43.192089,0 c 40.956739,0 43.243189,-0.0955 44.179359,-1.84472 z m 2.99876,-7.40528 c 0.46817,-1.2375 0.73394,-2.38223 0.5906,-2.54384 -0.14334,-0.16162 -17.52839,-0.68047 -38.63344,-1.153 -36.802644,-0.82401 -38.452388,-0.78243 -40.317267,1.01606 -1.069445,1.03138 -1.717026,2.10265 -1.43907,2.3806 0.277956,0.27796 16.902956,0.89432 36.944444,1.3697 20.041493,0.47538 37.691073,0.93547 39.221293,1.02241 2.04893,0.11641 3.00658,-0.43495 3.63344,-2.09193 z m -15.91566,-8.25 c 0,-1.22222 1.66666,-1.5 9,-1.5 8.93333,0 9,-0.0185 9,-2.5 l 0,-2.5 -33.39301,0 c -34.969135,0 -34.606993,-0.0427 -34.606993,4.08179 0,0.53274 10.3302,0.91821 24.606989,0.91821 21.462034,0 24.533424,0.19171 24.031384,1.5 -0.31658,0.825 -0.13973,1.5 0.39301,1.5 0.53274,0 0.96862,-0.675 0.96862,-1.5 z m -11.80543,-10.24702 c -6.21798,-0.17573 -16.11798,-0.17512 -21.999997,10e-4 -5.882017,0.17646 -0.794576,0.32024 11.305424,0.31949 12.100003,-7.6e-4 16.912563,-0.14516 10.694573,-0.32089 z m 27.80543,-2.35578 c 0,-0.60222 -0.72627,-2.62545 -1.61394,-4.49607 l -1.61394,-3.40113 -28.14327,0 -28.143265,0 0.354405,4.45606 0.354404,4.45605 29.402796,0.04 c 20.65914,0.0281 29.40281,-0.28559 29.40281,-1.05492 z m -23.31884,-13.8972 16.36495,0 -1.63807,-2.5 -1.63806,-2.5 -29.384993,0 c -20.131757,0 -29.38499,0.3356 -29.38499,1.06574 0,0.58616 0.501839,2.00344 1.115197,3.14951 1.073585,2.00601 1.620545,2.05953 14.658112,1.43426 7.448603,-0.35723 20.907134,-0.64951 29.907854,-0.64951 z m 2.06884,-10.624493 8.25,-0.555042 0,-3.424084 0,-3.424084 -32.250003,0.263853 -32.25,0.263853 -0.313358,3.25 c -0.172348,1.7875 -0.172348,3.312704 0,3.389342 0.172347,0.07664 5.938358,0.435418 12.813358,0.797288 12.614358,0.663964 28.585269,0.459125 43.750003,-0.561126 z m 9.89806,-15.109418 c 0.32567,-1.297575 0.27579,-2.67577 -0.11084,-3.062656 -0.38663,-0.386887 -15.82562,-0.861872 -34.308857,-1.055522 -31.393704,-0.328915 -33.69221,-0.234049 -34.91713,1.441129 -0.72118,0.986272 -1.311236,2.157214 -1.311236,2.602093 0,0.444878 5.0625,0.869885 11.25,0.944459 6.1875,0.07457 16.65,0.412074 23.25,0.75 6.6,0.337926 17.300083,0.642606 23.777973,0.677067 11.56499,0.06152 11.78867,0.02 12.37009,-2.29657 z"
       id="path3096"
       inkscape:connector-curvature="0" />
    <path
       style="fill:#681d93"
       d="m 70.899386,170.40402 c -15.217625,-0.29213 -27.856712,-0.75614 -28.086859,-1.03114 -0.230147,-0.275 -1.587135,-3.70805 -3.015529,-7.62899 l -2.597081,-7.12899 6.510065,-5.28191 c 6.735412,-5.46474 14.325266,-14.0627 17.028619,-19.29041 2.430601,-4.70026 1.319524,-11.33877 -2.982518,-17.82007 -6.096104,-9.18417 -8.117659,-14.610502 -8.139976,-21.849627 -0.01632,-5.292295 0.508799,-7.458888 2.826226,-11.660838 1.565446,-2.838461 4.259085,-6.52848 5.985865,-8.200042 l 3.139599,-3.039204 40.000003,-0.183851 40,-0.183851 2.17689,6.383893 c 2.76887,8.119902 2.81372,7.535771 -0.63151,8.224817 -3.66818,0.733636 -5.84801,3.939944 -6.64835,9.779051 -0.53626,3.912437 -0.10174,5.512121 3.37771,12.435042 11.341,22.56474 11.75698,37.64351 1.60543,58.19498 l -4.5691,9.25 -19.15554,-0.21886 c -10.53554,-0.12037 -31.606318,-0.45787 -46.823944,-0.75 z m 58.358644,-15.28114 c 0.86487,-0.6875 2.30654,-2.41716 3.20372,-3.84368 l 1.63123,-2.59369 -41.590317,-0.71203 -41.590311,-0.71203 -4.336821,3.99754 -4.336821,3.99754 2.664544,0.40834 c 1.465499,0.22459 20.691035,0.47577 42.723413,0.55818 30.728413,0.11493 40.425133,-0.14132 41.631363,-1.10017 z m 6.72543,-12 c 0.46817,-1.2375 0.73394,-2.38223 0.5906,-2.54384 -0.14334,-0.16162 -17.52839,-0.67598 -38.63344,-1.14304 -37.967274,-0.84023 -38.396561,-0.82739 -40.61888,1.21445 -1.235331,1.13501 -1.986063,2.32438 -1.668293,2.64304 0.31777,0.31867 14.603495,0.81987 31.746057,1.11379 17.142556,0.29392 34.895296,0.63142 39.450516,0.75 7.76625,0.20217 8.33526,0.0754 9.13344,-2.0344 z m 1.47735,-8.33178 c 0.33385,-0.86999 0.60699,-2.66999 0.60699,-4 l 0,-2.41822 -33.29166,0 -33.291652,0 -1.575202,3.47529 -1.575201,3.47528 15.616856,0.30201 c 47.096259,0.91078 52.874769,0.82068 53.509869,-0.83436 z m -0.39301,-10.42911 c 0,-0.556 -0.94956,-3.031 -2.11013,-5.5 l -2.11012,-4.48911 -28.13988,0 -28.139873,0 0,5.5 0,5.5 30.250003,0 c 19.71741,0 30.25,-0.35198 30.25,-1.01089 z m -8.86088,-17.23911 -2.05728,-3.25 -29.540923,-0.26488 c -18.555072,-0.16637 -29.54092,0.095 -29.54092,0.70295 0,0.53231 0.522232,2.114 1.160515,3.51488 l 1.160515,2.54705 30.437686,0 30.437687,0 -2.05728,-3.25 z m -4.54982,-8.113713 c 0.0491,-0.07496 -0.11124,-2.054955 -0.35635,-4.399997 l -0.44564,-4.263713 -32.143656,0.263713 -32.143657,0.263713 -0.31165,2.700547 c -0.171408,1.4853 0.209125,3.673625 0.845629,4.862943 l 1.15728,2.162397 31.65437,-0.72666 C 109.32333,99.472447 123.60798,99.084123 123.6571,99.009167 z m 0.9264,-15.70779 c 0.37104,-1.689328 0.36952,-3.376828 -0.003,-3.75 -0.37289,-0.373172 -15.94501,-0.835675 -34.604698,-1.027785 L 56.048717,78.1743 l -1.49046,3.567173 c -0.819753,1.961945 -1.49046,3.806626 -1.49046,4.099291 0,0.292666 15.939245,0.532119 35.420545,0.532119 l 35.420548,0 0.67461,-3.071506 z"
       id="path3094"
       inkscape:connector-curvature="0" />
    <path
       style="fill:#5a5a5a"
       d="m 70.899386,170.40402 c -15.217625,-0.29213 -27.856712,-0.75614 -28.086859,-1.03114 -0.230147,-0.275 -1.587135,-3.70805 -3.015529,-7.62899 l -2.597081,-7.12899 6.510065,-5.28191 c 6.735412,-5.46474 14.325266,-14.0627 17.028619,-19.29041 2.430601,-4.70026 1.319524,-11.33877 -2.982518,-17.82007 -6.096104,-9.18417 -8.117659,-14.610502 -8.139976,-21.849627 -0.01632,-5.292295 0.508799,-7.458888 2.826226,-11.660838 1.565446,-2.838461 4.259085,-6.52848 5.985865,-8.200042 l 3.139599,-3.039204 40.000003,-0.183851 40,-0.183851 2.17689,6.383893 c 2.76887,8.119902 2.81372,7.535771 -0.63151,8.224817 -3.66818,0.733636 -5.84801,3.939944 -6.64835,9.779051 -0.53626,3.912437 -0.10174,5.512121 3.37771,12.435042 11.341,22.56474 11.75698,37.64351 1.60543,58.19498 l -4.5691,9.25 -19.15554,-0.21886 c -10.53554,-0.12037 -31.606318,-0.45787 -46.823944,-0.75 z m 20.133227,-4.9654 c 0.569351,-1.06384 1.035184,-3.08884 1.035184,-4.5 l 0,-2.56574 -22,0 c -14,0 -22,-0.36364 -22,-1 0,-0.64992 13.93629,-1 39.80887,-1 42.651723,0 41.275903,0.16163 44.687503,-5.25 l 1.73365,-2.75 -16.4528,0 c -9.04904,0 -27.888291,-0.2518 -41.865009,-0.55957 l -25.412214,-0.55957 -4.62139,4.35554 -4.621389,4.35554 1.930295,5.17459 1.930295,5.1746 12.691095,0.3121 c 34.096283,0.83851 32.032061,0.91244 33.15591,-1.18749 z M 43.817797,155.7106 c 0.6875,-0.27741 1.8125,-0.27741 2.5,0 0.6875,0.27741 0.125,0.50439 -1.25,0.50439 -1.375,0 -1.9375,-0.22698 -1.25,-0.50439 z m 92.165663,-12.58772 c 0.46817,-1.2375 0.73394,-2.38223 0.5906,-2.54384 -0.14334,-0.16162 -17.52839,-0.67598 -38.63344,-1.14304 -37.967274,-0.84023 -38.396561,-0.82739 -40.61888,1.21445 -1.235331,1.13501 -1.986063,2.32438 -1.668293,2.64304 0.31777,0.31867 14.603495,0.81987 31.746057,1.11379 17.142556,0.29392 34.895296,0.63142 39.450516,0.75 7.76625,0.20217 8.33526,0.0754 9.13344,-2.0344 z m 1.47735,-8.33178 c 0.33385,-0.86999 0.60699,-2.66999 0.60699,-4 l 0,-2.41822 -33.29166,0 -33.291652,0 -1.575202,3.47529 -1.575201,3.47528 15.616856,0.30201 c 47.096259,0.91078 52.874769,0.82068 53.509869,-0.83436 z m 6.93912,-4.95182 c -0.18081,-6.42655 -3.8646,-18.07494 -7.97769,-25.22601 -2.14666,-3.7322 -2.69761,-4.12709 -4.44977,-3.18937 -1.94939,1.04328 -1.92137,1.20093 1.11232,6.25961 6.36003,10.60533 8.04793,15.18359 8.16667,22.15125 0.0939,5.5129 0.38234,6.57242 1.71464,6.29929 1.27698,-0.2618 1.56767,-1.53795 1.43383,-6.29477 z m -71.215059,-7.27433 c 1.432372,-3.76742 -0.63325,-8.19207 -3.824424,-8.19207 -2.009325,0 -2.855006,-0.92381 -4.577148,-5 -1.385278,-3.27886 -2.712261,-5 -3.854953,-5 -3.082907,0 -2.933671,1.69037 0.614765,6.96332 2.180118,3.23964 3.706567,6.92706 4.102224,9.90966 0.60891,4.59019 0.730086,4.73549 3.598212,4.31454 2.044099,-0.30001 3.271059,-1.23251 3.941324,-2.99544 z m 63.882929,1.79704 c 0,-0.556 -0.94956,-3.031 -2.11013,-5.5 l -2.11012,-4.48911 -28.13988,0 -28.139873,0 0,5.5 0,5.5 30.250003,0 c 19.71741,0 30.25,-0.35198 30.25,-1.01089 z m -8.86088,-17.23911 -2.05728,-3.25 -29.540923,-0.26488 c -18.555072,-0.16637 -29.54092,0.095 -29.54092,0.70295 0,0.53231 0.522232,2.114 1.160515,3.51488 l 1.160515,2.54705 30.437686,0 30.437687,0 -2.05728,-3.25 z m -4.54982,-8.113713 c 0.0491,-0.07496 -0.11124,-2.054955 -0.35635,-4.399997 l -0.44564,-4.263713 -32.143656,0.263713 -32.143657,0.263713 -0.31165,2.700547 c -0.171408,1.4853 0.209125,3.673625 0.845629,4.862943 l 1.15728,2.162397 31.65437,-0.72666 C 109.32333,99.472447 123.60798,99.084123 123.6571,99.009167 z m 0.9264,-15.70779 c 0.37104,-1.689328 0.36952,-3.376828 -0.003,-3.75 -0.37289,-0.373172 -15.94501,-0.835675 -34.604698,-1.027785 L 56.048717,78.1743 l -1.49046,3.567173 c -0.819753,1.961945 -1.49046,3.806626 -1.49046,4.099291 0,0.292666 15.939245,0.532119 35.420545,0.532119 l 35.420548,0 0.67461,-3.071506 z m -4.44002,-10.555674 2.42432,-2.627179 -29.74006,0.496483 c -23.245483,0.388062 -30.106011,0.797996 -31.415842,1.877179 -1.476483,1.21649 -0.972212,1.449902 4.240057,1.962589 3.253713,0.320041 16.299901,0.657541 28.991528,0.75 l 23.075687,0.168108 2.42431,-2.62718 z"
       id="path3092"
       inkscape:connector-curvature="0" />
    <path
       style="fill:#601889"
       d="m 78.567797,170.3813 c -19.8,-0.3145 -36.033273,-0.67005 -36.073941,-0.79012 -0.04067,-0.12006 -1.136159,-3.6053 -2.434424,-7.74497 l -2.360483,-7.52667 2.434424,-1.6203 c 4.842402,-3.223 17.726478,-16.99842 19.920031,-21.29814 3.208477,-6.28914 2.841292,-10.90537 -1.426226,-17.93047 C 46.889403,94.148173 46.715853,83.669251 57.932391,71.519554 l 3.828186,-4.146671 40.021833,0 40.02184,0 1.63177,5.815604 c 2.09372,7.461958 2.06156,7.981407 -0.51789,8.364845 -3.20355,0.47621 -6.06971,5.047303 -6.59545,10.518735 -0.3987,4.149379 0.0413,5.781628 3.05234,11.324493 5.64245,10.38672 8.87903,22.02399 8.89331,31.97632 0.0141,9.84087 -2.16358,17.63416 -7.96387,28.5 l -3.73666,7 -11,0.0401 c -6.05,0.0221 -27.200003,-0.2172 -47.000003,-0.5317 z m 12.464816,-4.94268 c 0.569351,-1.06384 1.035184,-3.08884 1.035184,-4.5 l 0,-2.56574 -22,0 c -14,0 -22,-0.36364 -22,-1 0,-0.64992 13.93629,-1 39.80887,-1 42.651723,0 41.275903,0.16163 44.687503,-5.25 l 1.73365,-2.75 -16.4528,0 c -9.04904,0 -27.888291,-0.2518 -41.865009,-0.55957 l -25.412214,-0.55957 -4.62139,4.35554 -4.621389,4.35554 1.930295,5.17459 1.930295,5.1746 12.691095,0.3121 c 34.096283,0.83851 32.032061,0.91244 33.15591,-1.18749 z M 43.817797,155.7106 c 0.6875,-0.27741 1.8125,-0.27741 2.5,0 0.6875,0.27741 0.125,0.50439 -1.25,0.50439 -1.375,0 -1.9375,-0.22698 -1.25,-0.50439 z m 92.165663,-12.58772 c 0.46817,-1.2375 0.73394,-2.38223 0.5906,-2.54384 -0.14334,-0.16162 -17.52839,-0.67598 -38.63344,-1.14304 -37.967274,-0.84023 -38.396561,-0.82739 -40.61888,1.21445 -1.235331,1.13501 -1.986063,2.32438 -1.668293,2.64304 0.31777,0.31867 14.603495,0.81987 31.746057,1.11379 17.142556,0.29392 34.895296,0.63142 39.450516,0.75 7.76625,0.20217 8.33526,0.0754 9.13344,-2.0344 z m 1.47735,-8.33178 c 0.33385,-0.86999 0.60699,-2.66999 0.60699,-4 l 0,-2.41822 -33.29166,0 -33.291652,0 -1.575202,3.47529 -1.575201,3.47528 15.616856,0.30201 c 47.096259,0.91078 52.874769,0.82068 53.509869,-0.83436 z m 6.93912,-4.95182 c -0.18081,-6.42655 -3.8646,-18.07494 -7.97769,-25.22601 -2.14666,-3.7322 -2.69761,-4.12709 -4.44977,-3.18937 -1.94939,1.04328 -1.92137,1.20093 1.11232,6.25961 6.36003,10.60533 8.04793,15.18359 8.16667,22.15125 0.0939,5.5129 0.38234,6.57242 1.71464,6.29929 1.27698,-0.2618 1.56767,-1.53795 1.43383,-6.29477 z m -71.215059,-7.27433 c 1.432372,-3.76742 -0.63325,-8.19207 -3.824424,-8.19207 -2.009325,0 -2.855006,-0.92381 -4.577148,-5 -1.385278,-3.27886 -2.712261,-5 -3.854953,-5 -3.082907,0 -2.933671,1.69037 0.614765,6.96332 2.180118,3.23964 3.706567,6.92706 4.102224,9.90966 0.60891,4.59019 0.730086,4.73549 3.598212,4.31454 2.044099,-0.30001 3.271059,-1.23251 3.941324,-2.99544 z m 63.882929,1.79704 c 0,-0.556 -0.94956,-3.031 -2.11013,-5.5 l -2.11012,-4.48911 -28.13988,0 -28.139873,0 0,5.5 0,5.5 30.250003,0 c 19.71741,0 30.25,-0.35198 30.25,-1.01089 z m -8.86088,-17.23911 -2.05728,-3.25 -29.540923,-0.26488 c -18.555072,-0.16637 -29.54092,0.095 -29.54092,0.70295 0,0.53231 0.522232,2.114 1.160515,3.51488 l 1.160515,2.54705 30.437686,0 30.437687,0 -2.05728,-3.25 z m -4.54982,-8.113713 c 0.0491,-0.07496 -0.10386,-1.977531 -0.33994,-4.227945 l -0.42923,-4.09166 -26.160068,-0.538502 c -14.388036,-0.296175 -28.860065,-0.254928 -32.160065,0.09166 -5.590448,0.587148 -6.021273,0.814498 -6.31165,3.330709 -0.171408,1.4853 0.209125,3.673625 0.845629,4.862943 l 1.15728,2.162398 31.65437,-0.726661 C 109.32333,99.472447 123.60798,99.084123 123.6571,99.009167 z m 0.9264,-15.70779 c 0.37104,-1.689328 0.36952,-3.376828 -0.003,-3.75 -0.37289,-0.373172 -15.94501,-0.835675 -34.604698,-1.027785 L 56.048717,78.1743 l -1.49046,3.567173 c -0.819753,1.961945 -1.49046,3.806626 -1.49046,4.099291 0,0.292666 15.939245,0.532119 35.420545,0.532119 l 35.420548,0 0.67461,-3.071506 z m -4.44002,-10.555674 2.42432,-2.627179 -29.74006,0.496483 c -23.245483,0.388062 -30.106011,0.797996 -31.415842,1.877179 -1.476483,1.21649 -0.972212,1.449902 4.240057,1.962589 3.253713,0.320041 16.299901,0.657541 28.991528,0.75 l 23.075687,0.168108 2.42431,-2.62718 z"
       id="path3090"
       inkscape:connector-curvature="0" />
    <path
       style="fill:#115a8e"
       d="m 78.567797,170.3813 c -19.8,-0.3145 -36.033273,-0.67005 -36.073941,-0.79012 -0.04067,-0.12006 -1.136159,-3.6053 -2.434424,-7.74497 l -2.360483,-7.52667 2.434424,-1.6203 c 4.842402,-3.223 17.726478,-16.99842 19.920031,-21.29814 3.208477,-6.28914 2.841292,-10.90537 -1.426226,-17.93047 C 46.889403,94.148173 46.715853,83.669251 57.932391,71.519554 l 3.828186,-4.146671 40.021833,0 40.02184,0 1.63177,5.815604 c 2.09372,7.461958 2.06156,7.981407 -0.51789,8.364845 -3.20355,0.47621 -6.06971,5.047303 -6.59545,10.518735 -0.3987,4.149379 0.0413,5.781628 3.05234,11.324493 5.64245,10.38672 8.87903,22.02399 8.89331,31.97632 0.0141,9.84087 -2.16358,17.63416 -7.96387,28.5 l -3.73666,7 -11,0.0401 c -6.05,0.0221 -27.200003,-0.2172 -47.000003,-0.5317 z m 36.000003,-5.00842 c 0.34912,-1.1 0.3703,-2.83326 0.0471,-3.8517 -0.77105,-2.42935 -10.52225,-3.1483 -42.700698,-3.1483 -15.230917,0 -23.846375,-0.36129 -23.846375,-1 0,-0.64992 13.93629,-1 39.80887,-1 42.491763,0 41.295593,0.13666 44.585083,-5.09368 l 1.63123,-2.59369 -41.542949,-0.71122 -41.542944,-0.71122 -4.823539,4.30491 -4.82354,4.3049 1.69637,5 1.696371,5 11.407524,0.55053 c 6.274138,0.3028 21.8397,0.6403 34.590136,0.75 22.394101,0.19269 23.204201,0.13144 23.817391,-1.80053 z M 43.817797,155.7106 c 0.6875,-0.27741 1.8125,-0.27741 2.5,0 0.6875,0.27741 0.125,0.50439 -1.25,0.50439 -1.375,0 -1.9375,-0.22698 -1.25,-0.50439 z m 98.797653,-10.35583 2.67785,-1.01812 -0.44903,-10.23188 c -0.4848,-11.04701 -2.56656,-18.55273 -8.03833,-28.98189 -3.20033,-6.099827 -3.39652,-6.262289 -5.73814,-4.75174 -1.28848,0.83118 -1.09857,1.71037 1.34669,6.23469 8.57191,15.86009 8.15331,14.58853 8.15331,24.76705 0,5.225 -0.34607,10.7375 -0.76905,12.25 -0.86973,3.11 -0.84615,3.1245 2.8167,1.73189 z m -6.63199,-2.23189 c 0.46817,-1.2375 0.73394,-2.38223 0.5906,-2.54384 -0.14334,-0.16162 -17.52839,-0.67598 -38.63344,-1.14304 -37.967274,-0.84023 -38.396561,-0.82739 -40.61888,1.21445 -1.235331,1.13501 -1.986063,2.32438 -1.668293,2.64304 0.31777,0.31867 14.603495,0.81987 31.746057,1.11379 17.142556,0.29392 34.895296,0.63142 39.450516,0.75 7.76625,0.20217 8.33526,0.0754 9.13344,-2.0344 z m 1.47735,-8.33178 c 0.33385,-0.86999 0.60699,-2.66999 0.60699,-4 l 0,-2.41822 -33.29166,0 -33.291652,0 -1.575202,3.47529 -1.575201,3.47528 15.616856,0.30201 c 47.096259,0.91078 52.874769,0.82068 53.509869,-0.83436 z m -70.393013,-6.97723 c 0,-1.94259 0.514827,-2.44099 2.521439,-2.44099 5.520207,0 5.703046,-10.15817 0.194611,-10.81225 -2.07719,-0.24665 -3.161247,-1.43583 -5.159538,-5.65987 -2.067709,-4.37078 -2.897598,-5.25144 -4.543169,-4.82111 -2.537814,0.66365 -2.533031,1.75466 0.02343,5.34488 4.345132,6.10217 6.222412,11.93687 5.527085,17.1785 -0.442829,3.3382 -0.316084,4.73475 0.390095,4.29831 0.575326,-0.35557 1.046047,-1.74493 1.046047,-3.08747 z m 70.000003,-3.45188 c 0,-0.556 -0.94956,-3.031 -2.11013,-5.5 l -2.11012,-4.48911 -28.13988,0 -28.139873,0 0,5.5 0,5.5 30.250003,0 c 19.71741,0 30.25,-0.35198 30.25,-1.01089 z m -8.86088,-17.23911 -2.05728,-3.25 -29.540923,-0.26488 c -18.555072,-0.16637 -29.54092,0.095 -29.54092,0.70295 0,0.53231 0.522232,2.114 1.160515,3.51488 l 1.160515,2.54705 30.437686,0 30.437687,0 -2.05728,-3.25 z m -4.54982,-8.113713 c 0.0491,-0.07496 -0.10386,-1.977531 -0.33994,-4.227945 l -0.42923,-4.09166 -26.160068,-0.538502 c -14.388036,-0.296175 -28.860065,-0.254928 -32.160065,0.09166 -5.590448,0.587148 -6.021273,0.814498 -6.31165,3.330709 -0.171408,1.4853 0.209125,3.673625 0.845629,4.862943 l 1.15728,2.162398 31.65437,-0.726661 C 109.32333,99.472447 123.60798,99.084123 123.6571,99.009167 z m 0.9264,-15.70779 c 0.37104,-1.689328 0.36952,-3.376828 -0.003,-3.75 -0.37289,-0.373172 -15.94501,-0.835675 -34.604698,-1.027785 L 56.048717,78.1743 l -1.49046,3.567173 c -0.819753,1.961945 -1.49046,3.806626 -1.49046,4.099291 0,0.292666 15.939245,0.532119 35.420545,0.532119 l 35.420548,0 0.67461,-3.071506 z m 1.4843,-10.481143 0,-2.552648 -31.348087,0.302648 c -25.18877,0.243184 -31.681955,0.580027 -33.047335,1.714378 -1.340921,1.114031 -1.425675,1.58527 -0.401915,2.234687 0.713534,0.452627 15.584834,0.829849 33.047334,0.838271 l 31.750003,0.01531 0,-2.552649 z"
       id="path3088"
       inkscape:connector-curvature="0" />
    <path
       style="fill:#5b1783"
       d="m 78.567797,170.3813 c -19.8,-0.3145 -36.033273,-0.67005 -36.073941,-0.79012 -0.04067,-0.12006 -1.136159,-3.6053 -2.434424,-7.74497 l -2.360483,-7.52667 2.434424,-1.6203 c 4.842402,-3.223 17.726478,-16.99842 19.920031,-21.29814 3.208477,-6.28914 2.841292,-10.90537 -1.426226,-17.93047 C 46.889403,94.148173 46.715853,83.669251 57.932391,71.519554 l 3.828186,-4.146671 40.021833,0 40.02184,0 1.63177,5.815604 c 2.09372,7.461958 2.06156,7.981407 -0.51789,8.364845 -3.20355,0.47621 -6.06971,5.047303 -6.59545,10.518735 -0.3987,4.149379 0.0413,5.781628 3.05234,11.324493 5.64245,10.38672 8.87903,22.02399 8.89331,31.97632 0.0141,9.84087 -2.16358,17.63416 -7.96387,28.5 l -3.73666,7 -11,0.0401 c -6.05,0.0221 -27.200003,-0.2172 -47.000003,-0.5317 z m 36.000003,-5.00842 c 0.34912,-1.1 0.3703,-2.83326 0.0471,-3.8517 -0.77105,-2.42935 -10.52225,-3.1483 -42.700698,-3.1483 -15.050564,0 -23.846375,-0.36472 -23.846375,-0.98878 0,-0.63124 14.720833,-1.08324 40.710444,-1.25 l 40.710449,-0.26122 2.36099,-3.5 2.361,-3.5 -41.510121,-0.86123 -41.510117,-0.86123 -4.972636,4.19299 -4.972637,4.19298 1.75379,5.16825 1.75379,5.16824 11.407524,0.55053 c 6.274138,0.3028 21.8397,0.6403 34.590136,0.75 22.394101,0.19269 23.204201,0.13144 23.817391,-1.80053 z m 28.04765,-20.01811 2.67785,-1.01812 -0.44903,-10.23188 c -0.4848,-11.04701 -2.56656,-18.55273 -8.03833,-28.98189 -3.20033,-6.099827 -3.39652,-6.262289 -5.73814,-4.75174 -1.28848,0.83118 -1.09857,1.71037 1.34669,6.23469 8.57191,15.86009 8.15331,14.58853 8.15331,24.76705 0,5.225 -0.34607,10.7375 -0.76905,12.25 -0.86973,3.11 -0.84615,3.1245 2.8167,1.73189 z m -6.63199,-2.23189 c 0.46817,-1.2375 0.69271,-2.42346 0.49897,-2.63547 -0.19373,-0.21201 -17.72539,-0.75995 -38.959236,-1.21764 l -38.606991,-0.83218 -2.338943,2.71765 -2.338943,2.71764 26.16474,0.52506 c 58.456133,1.17304 54.620963,1.26103 55.580403,-1.27506 z m 2.08434,-10.75 0,-4 -33.31479,0 -33.314788,0 -1.653056,3.4665 -1.653056,3.46649 10.717843,0.32113 c 5.894814,0.17661 21.630347,0.41669 34.967847,0.5335 l 24.25,0.21238 0,-4 z m -71.000003,-4.55901 c 0,-1.94259 0.514827,-2.44099 2.521439,-2.44099 5.520207,0 5.703046,-10.15817 0.194611,-10.81225 -2.07719,-0.24665 -3.161247,-1.43583 -5.159538,-5.65987 -2.067709,-4.37078 -2.897598,-5.25144 -4.543169,-4.82111 -2.537814,0.66365 -2.533031,1.75466 0.02343,5.34488 4.345132,6.10217 6.222412,11.93687 5.527085,17.1785 -0.442829,3.3382 -0.316084,4.73475 0.390095,4.29831 0.575326,-0.35557 1.046047,-1.74493 1.046047,-3.08747 z m 69.978043,-3.69099 c -0.0121,-0.6875 -0.89008,-3.1625 -1.95111,-5.5 l -1.92915,-4.25 -28.29889,-2e-4 -28.298893,-2e-4 0,5.49724 0,5.49725 30.250003,0.003 c 23.54659,0.002 30.24513,-0.27409 30.22804,-1.24709 z m -34.41243,-13.75 27.40203,0 -1.66903,-3.5 -1.66904,-3.5 -30.262766,0 -30.262768,0 1.073185,3.07854 c 1.0853,3.1133 4.211898,5.16131 6.654563,4.35893 0.732484,-0.2406 13.662703,-0.43747 28.733826,-0.43747 z m 20.88842,-11.120695 c 0.22967,-0.229672 0.17154,-2.251994 -0.12919,-4.49405 L 122.84588,90.68167 98.133324,90.091043 C 84.541421,89.766199 69.966353,89.761674 65.744285,90.080988 l -7.676488,0.580572 0,2.921403 c 0,1.606772 0.499217,3.854199 1.109372,4.994284 1.095002,2.046033 1.516233,2.066533 32.518223,1.582703 17.274868,-0.269599 31.596768,-0.678093 31.826438,-0.907765 z m 1.18745,-15.830613 c 0.85588,-3.20656 0.78516,-4.054729 -0.3752,-4.5 -0.78642,-0.301779 -16.4565,-0.548689 -34.82239,-0.548689 l -33.392533,0 -1.52568,2.95034 c -0.839124,1.622687 -1.52568,3.404488 -1.52568,3.959558 0,1.24703 8.709444,1.624375 43.543408,1.886557 l 27.043405,0.203545 1.05467,-3.951311 z m 1.35852,-10.601338 0,-2.552648 -31.348087,0.302648 c -25.18877,0.243184 -31.681955,0.580027 -33.047335,1.714378 -1.340921,1.114031 -1.425675,1.58527 -0.401915,2.234687 0.713534,0.452627 15.584834,0.829849 33.047334,0.838271 l 31.750003,0.01531 0,-2.552649 z"
       id="path3086"
       inkscape:connector-curvature="0" />
    <path
       style="fill:#54117a"
       d="m 78.567797,170.3813 c -19.8,-0.3145 -36.033273,-0.67005 -36.073941,-0.79012 -0.04067,-0.12006 -1.136159,-3.6053 -2.434424,-7.74497 l -2.360483,-7.52667 2.434424,-1.6203 c 4.842402,-3.223 17.726478,-16.99842 19.920031,-21.29814 3.208477,-6.28914 2.841292,-10.90537 -1.426226,-17.93047 C 46.889403,94.148173 46.715853,83.669251 57.932391,71.519554 l 3.828186,-4.146671 40.021833,0 40.02184,0 1.63177,5.815604 c 2.09372,7.461958 2.06156,7.981407 -0.51789,8.364845 -3.20355,0.47621 -6.06971,5.047303 -6.59545,10.518735 -0.3987,4.149379 0.0413,5.781628 3.05234,11.324493 5.64245,10.38672 8.87903,22.02399 8.89331,31.97632 0.0141,9.84087 -2.16358,17.63416 -7.96387,28.5 l -3.73666,7 -11,0.0401 c -6.05,0.0221 -27.200003,-0.2172 -47.000003,-0.5317 z m 36.500003,-6.86596 0,-3.85755 -6.14669,-0.64245 c -3.38068,-0.35335 -17.74388,-0.64246 -31.918217,-0.64246 -14.174336,0 -26.595825,-0.3375 -27.603309,-0.75 -1.007483,-0.4125 16.600521,-0.975 39.128898,-1.25 l 40.960688,-0.5 2.36075,-3.5 2.36076,-3.5 -41.510121,-0.86123 -41.510117,-0.86123 -4.972636,4.19299 -4.972637,4.19298 1.752797,5.16825 1.752798,5.16824 8.908516,0.56103 c 4.899684,0.30857 20.721017,0.64607 35.158517,0.75 l 26.250003,0.18897 0,-3.85754 z m 29.39301,-18.72424 c 1.17621,-3.06516 0.58824,-16.70205 -0.98193,-22.77387 -1.61177,-6.23274 -7.02997,-18.67014 -9.553,-21.92879 -1.1864,-1.53231 -1.64157,-1.59436 -3.22141,-0.439153 -1.74021,1.272473 -1.56479,1.824883 3.24082,10.205933 2.79433,4.87335 5.5935,10.41476 6.22039,12.31424 1.15028,3.48539 0.74755,17.54284 -0.62894,21.95342 -0.59989,1.92218 -0.33654,2.25 1.80744,2.25 1.3803,0 2.78279,-0.7118 3.11663,-1.58178 z m -8.47735,-1.66822 c 0.46817,-1.2375 0.69271,-2.42346 0.49897,-2.63547 -0.19373,-0.21201 -17.72539,-0.75995 -38.959236,-1.21764 l -38.606991,-0.83218 -2.338943,2.71765 -2.338943,2.71764 26.16474,0.52506 c 58.456133,1.17304 54.620963,1.26103 55.580403,-1.27506 z m 2.08434,-10.75 0,-4 -33.31479,0 -33.314788,0 -1.653056,3.4665 -1.653056,3.46649 10.717843,0.32113 c 5.894814,0.17661 21.630347,0.41669 34.967847,0.5335 l 24.25,0.21238 0,-4 z m -71.186645,-3.82701 c 0.258593,-2.61844 0.742964,-3.17299 2.771439,-3.17299 5.353555,0 5.609944,-10.1581 0.272556,-10.79862 -1.899961,-0.228 -3.120653,-1.58774 -5.162016,-5.75 -2.790471,-5.68966 -3.233062,-6.03634 -5.695337,-4.46117 -1.320827,0.84497 -1.296797,1.29107 0.201172,3.73469 6.187449,10.09352 7.389822,14.93459 5.378543,21.65548 -0.679725,2.27137 -0.567843,2.78367 0.529154,2.42299 0.765122,-0.25157 1.532142,-1.88523 1.704489,-3.63038 z m 70.164685,-4.42299 c -0.0121,-0.6875 -0.89008,-3.1625 -1.95111,-5.5 l -1.92915,-4.25 -28.29889,-2e-4 -28.298893,-2e-4 0,5.49724 0,5.49725 30.250003,0.003 c 23.54659,0.002 30.24513,-0.27409 30.22804,-1.24709 z m -34.41243,-13.75 27.40203,0 -1.66903,-3.5 -1.66904,-3.5 -30.262766,0 -30.262768,0 1.073185,3.07854 c 1.0853,3.1133 4.211898,5.16131 6.654563,4.35893 0.732484,-0.2406 13.662703,-0.43747 28.733826,-0.43747 z m 20.88842,-11.120695 c 0.22967,-0.229672 0.17154,-2.251994 -0.12919,-4.49405 L 122.84588,90.68167 98.133324,90.091043 C 84.541421,89.766199 69.966353,89.761674 65.744285,90.080988 l -7.676488,0.580572 0,2.921403 c 0,1.606772 0.499217,3.854199 1.109372,4.994284 1.095002,2.046033 1.516233,2.066533 32.518223,1.582703 17.274868,-0.269599 31.596768,-0.678093 31.826438,-0.907765 z m 1.18745,-15.830613 c 0.85588,-3.20656 0.78516,-4.054729 -0.3752,-4.5 -0.78642,-0.301779 -16.4565,-0.548689 -34.82239,-0.548689 l -33.392533,0 -1.52568,2.95034 c -0.839124,1.622687 -1.52568,3.404488 -1.52568,3.959558 0,1.24703 8.709444,1.624375 43.543408,1.886557 l 27.043405,0.203545 1.05467,-3.951311 z m 2.35852,-10.548689 0,-2.5 -31.825689,0 -31.825686,0 -2.348628,2.5 -2.348628,2.5 34.174314,0 34.174317,0 0,-2.5 z"
       id="path3084"
       inkscape:connector-curvature="0" />
    <path
       style="fill:#114971"
       d="m 78.567797,170.3813 c -19.8,-0.3145 -36.033273,-0.67005 -36.073941,-0.79012 -0.04067,-0.12006 -1.136159,-3.6053 -2.434424,-7.74497 l -2.360483,-7.52667 2.434424,-1.6203 c 4.842402,-3.223 17.726478,-16.99842 19.920031,-21.29814 3.317892,-6.50361 2.871625,-10.98631 -1.878209,-18.86638 C 46.85984,93.76233 46.799554,83.578586 57.932391,71.519554 l 3.828186,-4.146671 40.021833,0 40.02184,0 1.63177,5.815604 c 2.09372,7.461958 2.06156,7.981407 -0.51789,8.364845 -3.20355,0.47621 -6.06971,5.047303 -6.59545,10.518735 -0.3987,4.149379 0.0413,5.781628 3.05234,11.324493 5.64245,10.38672 8.87903,22.02399 8.89331,31.97632 0.0141,9.84087 -2.16358,17.63416 -7.96387,28.5 l -3.73666,7 -11,0.0401 c -6.05,0.0221 -27.200003,-0.2172 -47.000003,-0.5317 z m 52.299813,-6.601 0.2998,-4.09258 -13.70792,-0.65742 c -7.53935,-0.36158 -24.148959,-0.65742 -36.910234,-0.65742 -12.761274,0 -25.402624,-0.3375 -28.091888,-0.75 -2.851252,-0.43735 12.18574,-0.95844 36.071114,-1.25 l 40.960688,-0.5 2.36071,-3.5 2.36072,-3.5 -24.8214,-0.61053 c -13.651773,-0.3358 -32.471403,-0.65601 -41.821403,-0.71158 l -17,-0.10104 -4.825223,4.25334 -4.825223,4.25334 1.725606,4.45823 c 0.949083,2.45203 2.128945,4.90675 2.621914,5.45493 0.5476,0.60893 15.759301,1.2262 39.099617,1.58662 51.719502,0.79864 46.143042,1.23943 46.503122,-3.67589 z m 12.79886,-15.65742 c 3.85482,-11.50263 1.40995,-27.11889 -6.69849,-42.78581 -2.72445,-5.26409 -3.90018,-8.806201 -3.90018,-11.749997 0,-4.015767 -0.14125,-4.21419 -3,-4.21419 -2.81508,0 -3,0.23788 -3,3.859079 0,2.307279 1.14194,6.026857 2.83983,9.249998 1.56191,2.96501 4.71191,8.90264 7,13.19473 3.85674,7.23464 4.15829,8.36515 4.13435,15.5 -0.018,5.35416 -0.72638,9.75193 -2.32795,14.45158 -1.26617,3.71546 -2.07955,6.97796 -1.80751,7.25 0.27204,0.27203 1.50845,0.49461 2.74758,0.49461 1.82778,0 2.58501,-0.99079 4.01237,-5.25 z m -7.68301,-5 c 0.46817,-1.2375 0.69271,-2.42346 0.49897,-2.63547 -0.19373,-0.21201 -17.72539,-0.75995 -38.959236,-1.21764 l -38.606991,-0.83218 -2.338943,2.71765 -2.338943,2.71764 26.16474,0.52506 c 58.456133,1.17304 54.620963,1.26103 55.580403,-1.27506 z m 2.08434,-10.75 0,-4 -33.31479,0 -33.314788,0 -1.653056,3.4665 -1.653056,3.46649 10.717843,0.32113 c 5.894814,0.17661 21.630347,0.41669 34.967847,0.5335 l 24.25,0.21238 0,-4 z m -72.615013,0.53519 c 0.888256,-1.35565 1.61501,-3.60565 1.61501,-5 0,-2.14157 0.458753,-2.53519 2.954687,-2.53519 2.567594,0 3.03812,-0.44474 3.591537,-3.3947 0.779048,-4.15268 -0.782898,-7.35784 -3.794031,-7.78546 -1.596585,-0.22673 -2.979937,-1.84706 -4.752193,-5.56628 -2.083361,-4.37209 -2.940479,-5.24703 -5.143046,-5.25 -2.109577,-0.003 -2.956991,-0.76045 -4.198472,-3.753557 -0.855484,-2.0625 -1.578613,-3.174667 -1.606954,-2.471483 -0.05343,1.325675 4.47252,10.2724 8.099669,16.01113 4.211868,6.66384 4.295588,11.21333 0.376511,20.46035 -1.120026,2.64269 1.005828,2.11086 2.857282,-0.71481 z m 71.593053,-8.78519 c -0.0121,-0.6875 -0.89008,-3.1625 -1.95111,-5.5 l -1.92915,-4.25 -28.29889,-2e-4 -28.298893,-2e-4 0,5.49724 0,5.49725 30.250003,0.003 c 23.54659,0.002 30.24513,-0.27409 30.22804,-1.24709 z m -34.41243,-13.75 27.40203,0 -1.66903,-3.5 -1.66904,-3.5 -30.262766,0 -30.262768,0 1.073185,3.07854 c 1.0853,3.1133 4.211898,5.16131 6.654563,4.35893 0.732484,-0.2406 13.662703,-0.43747 28.733826,-0.43747 z m 20.88842,-11.120695 c 0.22967,-0.229672 0.17154,-2.251994 -0.12919,-4.49405 L 122.84588,90.68167 98.133324,90.091043 C 84.541421,89.766199 69.966353,89.761674 65.744285,90.080988 l -7.676488,0.580572 0,2.921403 c 0,1.606772 0.499217,3.854199 1.109372,4.994284 1.095002,2.046033 1.516233,2.066533 32.518223,1.582703 17.274868,-0.269599 31.596768,-0.678093 31.826438,-0.907765 z m 1.18745,-15.830613 c 0.85588,-3.20656 0.78516,-4.054729 -0.3752,-4.5 -0.78642,-0.301779 -16.4565,-0.548689 -34.82239,-0.548689 l -33.392533,0 -1.52568,2.95034 c -0.839124,1.622687 -1.52568,3.404488 -1.52568,3.959558 0,1.24703 8.709444,1.624375 43.543408,1.886557 l 27.043405,0.203545 1.05467,-3.951311 z m 10.34321,-10.298689 0.0153,-2.75 -36.000003,0 c -36,0 -36,0 -38.25,2.25 l -2.25,2.25 34.921547,0.263154 c 34.700286,0.261487 34.936276,0.249318 37.246056,-1.92061 2.51278,-2.360627 4.42124,-1.859444 2.36303,0.620555 -0.68991,0.831287 -0.95483,2.292051 -0.58871,3.246141 0.56956,1.484239 0.80008,1.522175 1.59656,0.262735 0.51199,-0.809586 0.93779,-2.709475 0.94621,-4.221975 z"
       id="path3082"
       inkscape:connector-curvature="0" />
    <path
       style="fill:#410663"
       d="m 78.567797,170.3813 c -19.8,-0.3145 -36.033273,-0.67005 -36.073941,-0.79012 -0.04067,-0.12006 -1.136159,-3.6053 -2.434424,-7.74497 l -2.360483,-7.52667 2.434424,-1.6203 c 4.842402,-3.223 17.726478,-16.99842 19.920031,-21.29814 3.317892,-6.50361 2.871625,-10.98631 -1.878209,-18.86638 C 46.85984,93.76233 46.799554,83.578586 57.932391,71.519554 l 3.828186,-4.146671 40.021833,0 40.02184,0 1.63177,5.815604 c 2.09372,7.461958 2.06156,7.981407 -0.51789,8.364845 -3.20355,0.47621 -6.06971,5.047303 -6.59545,10.518735 -0.3987,4.149379 0.0413,5.781628 3.05234,11.324493 5.64245,10.38672 8.87903,22.02399 8.89331,31.97632 0.0141,9.84087 -2.16358,17.63416 -7.96387,28.5 l -3.73666,7 -11,0.0401 c -6.05,0.0221 -27.200003,-0.2172 -47.000003,-0.5317 z m 52.299813,-6.601 0.2998,-4.09258 -13.70792,-0.65742 c -7.53935,-0.36158 -24.549266,-0.68335 -37.799805,-0.71505 -13.250538,-0.0317 -25.891888,-0.42995 -28.091888,-0.885 -2.398047,-0.49602 12.219774,-0.87956 36.5,-0.95768 22.275003,-0.0717 40.999713,-0.46092 41.610473,-0.865 0.61075,-0.40408 1.82279,-2.1256 2.69342,-3.82561 l 1.58295,-3.09093 -26.19342,-0.65703 c -14.406384,-0.36136 -33.168423,-0.64869 -41.693423,-0.6385 l -15.5,0.0185 -4.83982,4.23471 -4.83982,4.23471 1.740203,4.49472 c 0.957111,2.4721 2.143542,4.94323 2.636511,5.49141 0.5476,0.60893 15.759301,1.2262 39.099617,1.58662 51.719502,0.79864 46.143042,1.23943 46.503122,-3.67589 z m 12.79886,-15.65742 c 3.85482,-11.50263 1.40995,-27.11889 -6.69849,-42.78581 -2.72445,-5.26409 -3.90018,-8.806201 -3.90018,-11.749997 0,-4.015767 -0.14125,-4.21419 -3,-4.21419 -2.81508,0 -3,0.23788 -3,3.859079 0,2.307279 1.14194,6.026857 2.83983,9.249998 1.56191,2.96501 4.71191,8.90264 7,13.19473 3.85674,7.23464 4.15829,8.36515 4.13435,15.5 -0.018,5.35416 -0.72638,9.75193 -2.32795,14.45158 -1.26617,3.71546 -2.07955,6.97796 -1.80751,7.25 0.27204,0.27203 1.50845,0.49461 2.74758,0.49461 1.82778,0 2.58501,-0.99079 4.01237,-5.25 z m -7.35748,-5.23137 c 0.63983,-3.34703 1.03493,-3.30962 -41.80783,-3.95914 l -36.066638,-0.54678 -2.197635,2.97246 -2.197636,2.97246 19.764273,0.29357 c 10.87035,0.16147 29.274316,0.39601 40.897696,0.52119 l 21.13343,0.22761 0.47434,-2.48137 z m 1.56631,-10.26863 0.3075,-4.25 -33.55464,0 -33.554627,0 -1.360544,3.25 c -0.7483,1.7875 -1.196631,3.44046 -0.996293,3.67325 0.348153,0.40453 58.076954,1.88617 65.351104,1.67727 3.38431,-0.0972 3.51016,-0.24099 3.8075,-4.35052 z m -72.422513,0.28519 c 0.888256,-1.35565 1.61501,-3.60565 1.61501,-5 0,-2.14157 0.458753,-2.53519 2.954687,-2.53519 2.567594,0 3.03812,-0.44474 3.591537,-3.3947 0.779048,-4.15268 -0.782898,-7.35784 -3.794031,-7.78546 -1.596585,-0.22673 -2.979937,-1.84706 -4.752193,-5.56628 -2.083361,-4.37209 -2.940479,-5.24703 -5.143046,-5.25 -2.109577,-0.003 -2.956991,-0.76045 -4.198472,-3.753557 -0.855484,-2.0625 -1.578613,-3.174667 -1.606954,-2.471483 -0.05343,1.325675 4.47252,10.2724 8.099669,16.01113 4.211868,6.66384 4.295588,11.21333 0.376511,20.46035 -1.120026,2.64269 1.005828,2.11086 2.857282,-0.71481 z m 71.598563,-9.28519 c -0.009,-0.9625 -1.03284,-3.55 -2.27509,-5.75 -1.71133,-3.03072 -2.97952,-4.08554 -5.23355,-4.35302 -1.63621,-0.19417 -14.22491,-0.0342 -27.97491,0.35544 l -25.000003,0.70846 0,5.39161 0,5.3916 30.250003,0.003 c 28.15024,0.003 30.24886,-0.11852 30.23355,-1.74704 z m -13.21036,-12.88408 6.06657,-0.63408 -1.60509,-3.36592 -1.6051,-3.36592 -30.290034,0 -30.290037,0 1.033088,2.71723 c 2.049856,5.39153 1.496194,5.28277 26.893164,5.28277 13.051979,0 26.460819,-0.28533 29.797439,-0.63408 z M 123.6928,97.247883 c -0.34375,-1.71875 -0.625,-3.89808 -0.625,-4.842955 0,-1.561868 -2.25536,-1.771857 -24.823515,-2.311233 -13.652932,-0.326303 -28.277932,-0.332021 -32.5,-0.01271 l -7.676488,0.580575 0,2.921403 c 0,1.606772 0.465833,3.791819 1.035184,4.855661 0.99044,1.850656 2.422195,1.934256 33.125,1.934256 l 32.089819,0 -0.625,-3.124997 z m 1.16426,-13.540002 c 0.61865,-2.015751 0.89259,-4.040751 0.60876,-4.5 -0.28383,-0.459249 -15.9594,-0.834998 -34.834595,-0.834998 -37.380073,0 -35.969064,-0.221819 -37.18249,5.845308 l -0.630938,3.154692 35.457219,0 35.457224,0 1.12482,-3.665002 z m 10.19543,-10.584998 0.0153,-2.75 -36.000003,0 c -36,0 -36,0 -38.25,2.25 l -2.25,2.25 34.921547,0.263154 c 34.700286,0.261487 34.936276,0.249318 37.246056,-1.92061 2.51278,-2.360627 4.42124,-1.859444 2.36303,0.620555 -0.68991,0.831287 -0.95483,2.292051 -0.58871,3.246141 0.56956,1.484239 0.80008,1.522175 1.59656,0.262735 0.51199,-0.809586 0.93779,-2.709475 0.94621,-4.221975 z"
       id="path3080"
       inkscape:connector-curvature="0" />
    <path
       style="fill:#360b50"
       d="m 78.567797,170.3813 c -19.8,-0.3145 -36.033273,-0.67005 -36.073941,-0.79012 -0.04067,-0.12006 -1.136159,-3.6053 -2.434424,-7.74497 l -2.360483,-7.52667 2.434424,-1.6203 c 4.842402,-3.223 17.726478,-16.99842 19.920031,-21.29814 3.317892,-6.50361 2.871625,-10.98631 -1.878209,-18.86638 C 46.85984,93.76233 46.799554,83.578586 57.932391,71.519554 l 3.828186,-4.146671 40.021833,0 40.02184,0 1.63177,5.815604 c 2.09372,7.461958 2.06156,7.981407 -0.51789,8.364845 -3.20355,0.47621 -6.06971,5.047303 -6.59545,10.518735 -0.3987,4.149379 0.0413,5.781628 3.05234,11.324493 5.64245,10.38672 8.87903,22.02399 8.89331,31.97632 0.0141,9.84087 -2.16358,17.63416 -7.96387,28.5 l -3.73666,7 -11,0.0401 c -6.05,0.0221 -27.200003,-0.2172 -47.000003,-0.5317 z m 60.762433,-11.75842 c 2.53434,-5.3625 5.13143,-12.39748 5.7713,-15.63329 2.01166,-10.17284 -0.79685,-23.21449 -8.14979,-37.84451 -3.98202,-7.922951 -4.8344,-13.142089 -2.95407,-18.08774 0.76923,-2.023224 0.49408,-2.824654 -1.59269,-4.639077 -1.38741,-1.206335 -2.7601,-1.955792 -3.05043,-1.665459 -0.29034,0.290333 -1.13493,3.136123 -1.87688,6.323978 -1.58824,6.824073 -0.90738,10.160286 3.73387,18.296098 9.22538,16.17151 9.19227,16.08933 9.64391,23.9366 0.36287,6.30503 -0.0107,8.89441 -2.24561,15.5634 -1.4745,4.4 -3.5317,9.35 -4.57155,11 l -1.89065,3 -38.289922,-0.36645 c -21.059457,-0.20155 -40.089921,-0.7123 -42.289921,-1.135 -2.2,-0.42271 14.225,-0.82719 36.5,-0.89886 22.275003,-0.0717 40.999713,-0.46092 41.610473,-0.865 0.61075,-0.40408 1.82279,-2.1256 2.69342,-3.82561 l 1.58295,-3.09093 -26.19342,-0.65703 c -14.406384,-0.36136 -33.168423,-0.64869 -41.693423,-0.6385 l -15.5,0.0185 -4.793681,4.22943 -4.793681,4.22943 1.688535,5 c 0.928694,2.75 1.885628,5.225 2.126519,5.5 0.382006,0.43609 32.94192,1.2086 76.349581,1.81144 l 13.57727,0.18856 4.60789,-9.75 z m -3.02124,-15.73137 c 0.63983,-3.34703 1.03493,-3.30962 -41.80783,-3.95914 l -36.066638,-0.54678 -2.197635,2.97246 -2.197636,2.97246 19.764273,0.29357 c 10.87035,0.16147 29.274316,0.39601 40.897696,0.52119 l 21.13343,0.22761 0.47434,-2.48137 z m 1.56631,-10.26863 0.3075,-4.25 -33.55464,0 -33.554627,0 -1.360544,3.25 c -0.7483,1.7875 -1.196631,3.44046 -0.996293,3.67325 0.348153,0.40453 58.076954,1.88617 65.351104,1.67727 3.38431,-0.0972 3.51016,-0.24099 3.8075,-4.35052 z m -72.364207,0.5275 c 0.856187,-1.22238 1.556704,-3.47238 1.556704,-5 0,-2.40526 0.393028,-2.7775 2.932612,-2.7775 3.445873,0 4.593864,-2.3801 3.628911,-7.52374 -0.508141,-2.70863 -1.148447,-3.40982 -3.344981,-3.66306 -2.173123,-0.25055 -3.216643,-1.3627 -5.216542,-5.55964 -1.909031,-4.00625 -3.026423,-5.24728 -4.726947,-5.25 -3.002291,-0.005 -5.54578,-4.14909 -5.54578,-9.036147 0,-2.182075 -0.388637,-3.96741 -0.863637,-3.96741 -2.855281,0 0.551983,10.902167 6.092704,19.494717 6.194985,9.6072 6.967414,16.39413 2.620827,23.02785 -1.379606,2.10555 -1.403162,2.47743 -0.156924,2.47743 0.806492,0 2.166866,-1.00013 3.023053,-2.2225 z m 71.540257,-9.5275 c -0.009,-0.9625 -1.03284,-3.55 -2.27509,-5.75 -1.71133,-3.03072 -2.97952,-4.08554 -5.23355,-4.35302 -1.63621,-0.19417 -14.22491,-0.0342 -27.97491,0.35544 l -25.000003,0.70846 0,5.39161 0,5.3916 30.250003,0.003 c 28.15024,0.003 30.24886,-0.11852 30.23355,-1.74704 z m -13.21036,-12.88408 6.06657,-0.63408 -1.60509,-3.36592 -1.6051,-3.36592 -30.290034,0 -30.290037,0 1.033088,2.71723 c 2.049856,5.39153 1.496194,5.28277 26.893164,5.28277 13.051979,0 26.460819,-0.28533 29.797439,-0.63408 z M 123.6928,97.247883 c -0.34375,-1.71875 -0.625,-3.89808 -0.625,-4.842955 0,-1.561868 -2.25536,-1.771857 -24.823515,-2.311233 -13.652932,-0.326303 -28.277932,-0.332021 -32.5,-0.01271 l -7.676488,0.580575 0,2.921403 c 0,1.606772 0.465833,3.791819 1.035184,4.855661 0.99044,1.850656 2.422195,1.934256 33.125,1.934256 l 32.089819,0 -0.625,-3.124997 z m 1.16426,-13.540002 c 0.61865,-2.015751 0.89259,-4.040751 0.60876,-4.5 -0.28383,-0.459249 -15.9594,-0.834998 -34.834595,-0.834998 -37.380073,0 -35.969064,-0.221819 -37.18249,5.845308 l -0.630938,3.154692 35.457219,0 35.457224,0 1.12482,-3.665002 z m 15.7392,-9.283739 -1.22924,-3.551259 -38.30758,-0.262033 c -34.583113,-0.236556 -38.486662,-0.09996 -40.149606,1.404988 -1.01312,0.916861 -1.842037,2.047276 -1.842037,2.512033 0,1.230369 69.735273,1.082375 70.496683,-0.149611 0.33809,-0.547042 1.44815,-1.440667 2.4668,-1.985833 1.70295,-0.911388 1.76338,-0.756175 0.75046,1.92736 -0.97233,2.575983 -0.8234,3.143879 1.26876,4.838001 2.19037,1.77366 2.57561,1.801647 5.07269,0.36852 2.57329,-1.476867 2.64362,-1.720444 1.47307,-5.102166 z"
       id="path3078"
       inkscape:connector-curvature="0" />
    <path
       style="fill:#0d344f"
       d="m 78.567797,170.34722 c -19.8,-0.36188 -36.033273,-0.72915 -36.073941,-0.81615 -0.04067,-0.087 -1.136159,-3.54519 -2.434424,-7.68486 l -2.360483,-7.52667 2.434424,-1.6203 c 4.842402,-3.223 17.726478,-16.99842 19.920031,-21.29814 3.317892,-6.50361 2.871625,-10.98631 -1.878209,-18.86638 C 46.85984,93.76233 46.799554,83.578586 57.932391,71.519554 l 3.828186,-4.146671 40.021833,0 40.02184,0 1.63177,5.815604 c 2.09372,7.461958 2.06156,7.981407 -0.51789,8.364845 -3.20355,0.47621 -6.06971,5.047303 -6.59545,10.518735 -0.3987,4.149379 0.0413,5.781628 3.05234,11.324493 5.64245,10.38672 8.87903,22.02399 8.89331,31.97632 0.0141,9.84087 -2.16358,17.63416 -7.96387,28.5 l -3.73666,7 -11,0.0661 c -6.05,0.0364 -27.200003,-0.22993 -47.000003,-0.59181 z m 60.431773,-10.22434 c 5.55611,-11.49126 7.46701,-19.5494 6.66987,-28.12635 -0.77775,-8.36831 -4.5434,-19.98665 -9.16789,-28.28613 -3.55961,-6.388365 -4.36541,-11.756853 -2.50082,-16.661112 0.76742,-2.018478 0.49197,-2.868053 -1.55267,-4.788894 -3.01598,-2.833368 -3.78068,-2.002351 -5.43339,5.904624 -1.31854,6.308178 -0.0451,10.997764 5.2563,19.357622 10.64631,16.78818 11.44081,28.29875 3.10359,44.96388 -3.36209,6.72041 -3.69521,7.05867 -6.41566,6.51458 -1.5782,-0.31564 -15.36182,-0.67324 -30.630276,-0.79467 -15.268455,-0.12143 -32.935827,-0.50025 -39.260827,-0.84181 -7.007044,-0.3784 4.323018,-0.69942 29,-0.82169 22.275003,-0.11037 40.999713,-0.53128 41.610473,-0.93536 0.61075,-0.40408 1.82279,-2.1256 2.69342,-3.82561 l 1.58295,-3.09093 -26.19342,-0.65703 c -14.406384,-0.36136 -33.168423,-0.64869 -41.693423,-0.6385 l -15.5,0.0185 -4.793401,4.22943 -4.793401,4.22943 1.888008,5.5 1.888009,5.5 26.905393,0.52464 c 14.797965,0.28855 35.105035,0.62605 45.126815,0.75 l 18.22142,0.22536 3.98893,-8.25 z m -2.69058,-17.23137 c 0.63983,-3.34703 1.03493,-3.30962 -41.80783,-3.95914 l -36.066638,-0.54678 -2.197635,2.97246 -2.197636,2.97246 19.764273,0.29357 c 10.87035,0.16147 29.274316,0.39601 40.897696,0.52119 l 21.13343,0.22761 0.47434,-2.48137 z m 1.56631,-10.26863 0.3075,-4.25 -33.55464,0 -33.554627,0 -1.360544,3.25 c -0.7483,1.7875 -1.196631,3.44046 -0.996293,3.67325 0.348153,0.40453 58.076954,1.88617 65.351104,1.67727 3.38431,-0.0972 3.51016,-0.24099 3.8075,-4.35052 z m -71.796543,-0.5 c 1.08986,-1.7875 1.983246,-4.0375 1.985302,-5 0.0025,-1.17809 0.785782,-1.75 2.396749,-1.75 2.526878,0 3.606989,-1.64697 3.606989,-5.5 0,-3.81071 -1.07254,-5.5 -3.491979,-5.5 -2.433667,0 -5.281917,-3.49221 -6.454313,-7.91357 -0.488742,-1.84315 -1.459755,-2.67761 -3.378894,-2.90373 -3.251373,-0.38308 -5.674814,-4.496892 -5.674814,-9.633037 0,-2.461847 -0.452022,-3.54966 -1.475,-3.54966 -3.01383,0 0.695091,10.273557 8.483881,23.499997 3.528878,5.99253 3.916222,12.26258 1.098918,17.78856 -1.509063,2.95994 -1.607328,3.71144 -0.485301,3.71144 0.773794,0 2.298602,-1.4625 3.388462,-3.25 z m 70.972593,-8.5 c -0.009,-0.9625 -1.03284,-3.55 -2.27509,-5.75 -1.71133,-3.03072 -2.97952,-4.08554 -5.23355,-4.35302 -1.63621,-0.19417 -14.22491,-0.0342 -27.97491,0.35544 l -25.000003,0.70846 0,5.39161 0,5.3916 30.250003,0.003 c 28.15024,0.003 30.24886,-0.11852 30.23355,-1.74704 z m -13.21036,-12.88408 6.06657,-0.63408 -1.60509,-3.36592 -1.6051,-3.36592 -30.290034,0 -30.290037,0 1.033088,2.71723 c 2.049856,5.39153 1.496194,5.28277 26.893164,5.28277 13.051979,0 26.460819,-0.28533 29.797439,-0.63408 z M 123.6928,97.247883 c -0.34375,-1.71875 -0.625,-3.89808 -0.625,-4.842955 0,-1.561868 -2.25536,-1.771857 -24.823515,-2.311233 -13.652932,-0.326303 -28.277932,-0.332021 -32.5,-0.01271 l -7.676488,0.580575 0,2.921403 c 0,1.606772 0.465833,3.791819 1.035184,4.855661 0.99044,1.850656 2.422195,1.934256 33.125,1.934256 l 32.089819,0 -0.625,-3.124997 z m 1.21671,-13.74102 c 0.63706,-2.12631 1.15829,-4.15131 1.15829,-4.5 0,-0.348689 -15.6949,-0.63398 -34.877558,-0.63398 -37.989869,0 -36.527136,-0.226544 -37.741507,5.845308 l -0.630938,3.154692 35.466712,0 35.466711,0 1.15829,-3.86602 z m 15.43633,-3.757301 c 1.05283,-0.369849 1.58204,-1.287822 1.29749,-2.250644 -0.2643,-0.894319 -0.77571,-2.863535 -1.13645,-4.376035 l -0.6559,-2.75 -38.56285,0 c -34.479816,0 -38.756479,0.17523 -40.391592,1.654988 -1.005808,0.910243 -1.828741,2.035243 -1.828741,2.5 0,1.230369 69.735273,1.082375 70.496683,-0.149611 0.33809,-0.547042 1.44815,-1.440667 2.4668,-1.985833 1.71344,-0.917003 1.76595,-0.762992 0.70147,2.057148 -1.04076,2.757284 -0.9126,3.231098 1.34221,4.962151 1.37106,1.052586 2.94284,1.699739 3.49284,1.438118 0.55,-0.261621 1.80012,-0.756748 2.77804,-1.100282 z"
       id="path3076"
       inkscape:connector-curvature="0" />
    <path
       style="fill:#250835"
       d="m 78.900036,170.43903 c -19.617269,-0.31138 -35.846611,-0.79115 -36.065205,-1.06615 -0.218593,-0.275 -1.482305,-3.7614 -2.808248,-7.74755 l -2.410805,-7.24754 2.47601,-1.64943 c 4.88123,-3.2517 17.759788,-17.01132 19.961616,-21.32726 3.317892,-6.50361 2.871625,-10.98631 -1.878209,-18.86638 C 46.90594,93.83881 46.84491,83.529457 57.932391,71.519554 l 3.828186,-4.146671 40.021833,0 40.02184,0 1.63177,5.815604 c 2.10047,7.486014 2.0658,7.982697 -0.58386,8.364845 -1.2186,0.175753 -3.2436,1.848598 -4.5,3.717434 -3.1418,4.673285 -3.04948,10.940399 0.24395,16.560204 3.86893,6.60184 8.20432,19.363 9.32454,27.44669 1.6089,11.60997 -0.73367,21.87695 -8.12158,35.59522 l -3.23127,6 -11,0.0661 c -6.05,0.0364 -27.050496,-0.18862 -46.667764,-0.5 z m 60.099534,-10.31615 c 5.55611,-11.49126 7.46701,-19.5494 6.66987,-28.12635 -0.77775,-8.36831 -4.5434,-19.98665 -9.16789,-28.28613 -3.55961,-6.388365 -4.36541,-11.756853 -2.50082,-16.661112 0.76742,-2.018478 0.49197,-2.868053 -1.55267,-4.788894 -3.01598,-2.833368 -3.78068,-2.002351 -5.43339,5.904624 -1.31854,6.308178 -0.0451,10.997764 5.2563,19.357622 10.57195,16.67093 11.4285,28.32056 3.28021,44.61282 l -3.36961,6.73742 -25.30689,-0.30914 c -13.918785,-0.17003 -32.956883,-0.66504 -42.306883,-1.10002 -14.561216,-0.67741 -11.094062,-0.81239 24.168441,-0.94086 l 41.168442,-0.14998 2.19563,-3.5526 c 1.20759,-1.95393 1.98102,-3.7672 1.71872,-4.0295 -0.2623,-0.2623 -18.92257,-0.76042 -41.467265,-1.10694 -44.476352,-0.6836 -41.163209,-1.0234 -48.199637,4.94338 l -3.248103,2.75434 1.914404,5.74566 1.914404,5.74566 26.917482,0.52464 c 14.804615,0.28855 35.117125,0.62605 45.138905,0.75 l 18.22142,0.22536 3.98893,-8.25 z m -2.49151,-17.368 c 0.36139,-1.4399 0.52268,-2.73216 0.35841,-2.87169 -0.16427,-0.13953 -17.90486,-0.57249 -39.423525,-0.96213 l -39.124852,-0.70843 -2.173481,3.05238 -2.173482,3.05237 14.298334,0.30749 c 7.864083,0.16912 26.287049,0.40661 40.939926,0.52775 l 26.64159,0.22026 0.65708,-2.618 z m 1.55974,-9.882 0,-4.5 -33.875,0 -33.875003,0 -0.55,2.75 c -0.3025,1.5125 -0.69625,3.2 -0.875,3.75 -0.207973,0.63992 8.857092,1.18938 25.175,1.52592 14.025003,0.28926 29.662503,0.62676 34.750003,0.75 l 9.25,0.22408 0,-4.5 z m -71.989043,-0.75 c 1.08986,-1.7875 1.983246,-4.0375 1.985302,-5 0.0025,-1.17809 0.785782,-1.75 2.396749,-1.75 2.526878,0 3.606989,-1.64697 3.606989,-5.5 0,-3.81071 -1.07254,-5.5 -3.491979,-5.5 -2.433667,0 -5.281917,-3.49221 -6.454313,-7.91357 -0.488742,-1.84315 -1.459755,-2.67761 -3.378894,-2.90373 -3.251373,-0.38308 -5.674814,-4.496892 -5.674814,-9.633037 0,-2.461847 -0.452022,-3.54966 -1.475,-3.54966 -3.01383,0 0.695091,10.273557 8.483881,23.499997 3.528878,5.99253 3.916222,12.26258 1.098918,17.78856 -1.509063,2.95994 -1.607328,3.71144 -0.485301,3.71144 0.773794,0 2.298602,-1.4625 3.388462,-3.25 z m 70.626873,-10 c -0.76395,-1.7875 -1.96722,-4.4875 -2.67393,-6 l -1.28493,-2.75 -28.20003,0 -28.200024,0 0.110541,5.99777 0.11054,5.99776 30.763423,0.002 30.76342,0.002 -1.38901,-3.25 z m -6.63783,-11.88196 c 0,-0.62258 -0.95263,-2.67335 -2.11695,-4.55726 l -2.11695,-3.42529 -29.63305,0.69067 c -16.298179,0.37986 -29.76484,0.79992 -29.925913,0.93345 -0.161074,0.13353 0.484772,1.87349 1.435212,3.86659 l 1.728073,3.6238 30.314787,0 c 21.899281,0 30.314791,-0.31423 30.314791,-1.13196 z m -6.12573,-13.932091 c -0.50222,-2.235229 -0.68439,-4.434165 -0.40482,-4.886522 0.53474,-0.865231 -50.013298,-2.469947 -59.469453,-1.887939 -5.219788,0.321268 -5.516715,0.484777 -5.828082,3.209344 -0.180445,1.578956 -0.05937,3.941456 0.269052,5.25 l 0.597134,2.379168 32.874651,0 32.874648,0 -0.91313,-4.064051 z m 0.96744,-12.801966 c 0.63706,-2.12631 1.15829,-4.15131 1.15829,-4.5 0,-0.348689 -15.92614,-0.63398 -35.391423,-0.63398 l -35.391421,0 -1.608579,4.020236 c -0.884719,2.21113 -1.60858,4.23613 -1.60858,4.5 0,0.26387 16.128771,0.479764 35.841712,0.479764 l 35.841711,0 1.15829,-3.86602 z m 15.43633,-3.757301 c 1.05283,-0.369849 1.58204,-1.287822 1.29749,-2.250644 -0.2643,-0.894319 -0.77571,-2.863535 -1.13645,-4.376035 l -0.6559,-2.75 -38.56285,0 c -34.479816,0 -38.756479,0.17523 -40.391592,1.654988 -1.005808,0.910243 -1.828741,2.035243 -1.828741,2.5 0,1.230369 69.735273,1.082375 70.496683,-0.149611 0.33809,-0.547042 1.44815,-1.440667 2.4668,-1.985833 1.71344,-0.917003 1.76595,-0.762992 0.70147,2.057148 -1.04076,2.757284 -0.9126,3.231098 1.34221,4.962151 1.37106,1.052586 2.94284,1.699739 3.49284,1.438118 0.55,-0.261621 1.80012,-0.756748 2.77804,-1.100282 z"
       id="path3074"
       inkscape:connector-curvature="0" />
    <path
       style="fill:#110f28"
       d="m 80.333291,170.39675 c -20.478979,-0.36275 -37.374294,-0.85402 -37.545145,-1.09171 -0.170851,-0.23769 -1.364192,-3.50358 -2.651867,-7.25754 l -2.341229,-6.82538 8.454957,-7.83802 C 62.182914,132.61376 65.462206,124.82305 59.759498,115.28919 58.3066,112.86022 55.484514,107.61644 53.488197,103.63634 47.340863,91.380273 48.76364,81.451098 58.119308,71.317086 l 3.641269,-3.944203 40.021833,0 40.02184,0 1.63177,5.815604 c 2.06265,7.351226 2.09372,7.05827 -0.86776,8.184221 -6.34201,2.411229 -8.42211,12.864991 -4.04579,20.332612 1.35006,2.30371 3.60104,7.23422 5.00217,10.95668 7.23365,19.21802 6.30927,33.6734 -3.27478,51.21088 l -3.82543,7 -9.42832,0.0917 c -5.18557,0.0504 -26.18384,-0.20509 -46.662819,-0.56784 z m 58.737719,-10.03026 c 9.50348,-18.90147 9.11639,-33.01216 -1.5002,-54.68692 -4.72764,-9.651924 -5.1296,-11.635095 -3.50582,-17.296873 0.90638,-3.160368 0.73096,-3.743201 -1.92639,-6.400548 l -2.92356,-2.923565 -1.68613,5.800053 c -0.92736,3.190029 -1.46389,7.456859 -1.19229,9.481845 0.27161,2.024985 3.45543,9.007418 7.07514,15.516508 6.97806,12.54817 8.33742,17.32171 7.25544,25.47813 -0.80225,6.04764 -3.89278,15.15836 -6.66188,19.63885 l -2.10064,3.39891 -22.66844,-0.13297 c -12.467645,-0.0731 -31.443443,-0.44093 -42.168443,-0.81734 -16.768958,-0.58852 -13.734219,-0.70995 21.668441,-0.86703 l 41.168442,-0.18266 2.19563,-3.5526 c 1.20759,-1.95393 1.97922,-3.769 1.71473,-4.03349 -0.26449,-0.26449 -19.10332,-0.73579 -41.864067,-1.04735 l -41.383176,-0.56646 -4.702044,3.84995 c -2.586125,2.11748 -4.699152,4.52495 -4.695617,5.34995 0.0035,0.825 0.781781,3.525 1.729434,6 l 1.723005,4.5 22.972611,0.52838 c 12.634936,0.29061 32.980084,0.62811 45.211454,0.75 l 22.23884,0.22162 4.02553,-8.00639 z m -2.56295,-17.61161 c 0.36139,-1.4399 0.52268,-2.73216 0.35841,-2.87169 -0.16427,-0.13953 -17.90486,-0.57249 -39.423525,-0.96213 l -39.124852,-0.70843 -2.173481,3.05238 -2.173482,3.05237 14.298334,0.30749 c 7.864083,0.16912 26.287049,0.40661 40.939926,0.52775 l 26.64159,0.22026 0.65708,-2.618 z m 1.55974,-9.882 0,-4.5 -33.875,0 -33.875003,0 -0.55,2.75 c -0.3025,1.5125 -0.69625,3.2 -0.875,3.75 -0.207973,0.63992 8.857092,1.18938 25.175,1.52592 14.025003,0.28926 29.662503,0.62676 34.750003,0.75 l 9.25,0.22408 0,-4.5 z m -72.072583,-0.13486 c 1.139919,-1.44917 2.07258,-3.66928 2.07258,-4.93357 0,-1.76432 0.639313,-2.37228 2.75,-2.61515 2.380999,-0.27396 2.791307,-0.81392 3.057841,-4.02408 0.391738,-4.71812 -1.301065,-7.99269 -3.926007,-7.59451 -2.053324,0.31148 -3.959907,-2.11369 -5.855212,-7.44783 -0.71267,-2.00573 -1.653476,-2.75 -3.476191,-2.75 -3.053728,0 -5.550431,-4.250963 -5.550431,-9.450337 0,-2.597552 -0.432189,-3.54966 -1.611291,-3.54966 -3.323278,0 0.242126,10.250887 7.563183,21.744897 4.390455,6.89298 5.104447,13.26419 2.138069,19.07876 -1.699274,3.33086 -1.837518,4.17634 -0.682865,4.17634 0.796259,0 2.380405,-1.18568 3.520324,-2.63486 z m 70.710413,-10.61514 c -0.76395,-1.7875 -1.96722,-4.4875 -2.67393,-6 l -1.28493,-2.75 -28.20003,0 -28.200024,0 0.110541,5.99777 0.11054,5.99776 30.763423,0.002 30.76342,0.002 -1.38901,-3.25 z m -6.63783,-11.88196 c 0,-0.62258 -0.95263,-2.67335 -2.11695,-4.55726 l -2.11695,-3.42529 -29.63305,0.69067 c -16.298179,0.37986 -29.76484,0.79992 -29.925913,0.93345 -0.161074,0.13353 0.484772,1.87349 1.435212,3.86659 l 1.728073,3.6238 30.314787,0 c 21.899281,0 30.314791,-0.31423 30.314791,-1.13196 z m -6.12573,-13.932091 c -0.50222,-2.235229 -0.68439,-4.434165 -0.40482,-4.886522 0.53474,-0.865231 -50.013298,-2.469947 -59.469453,-1.887939 -5.219788,0.321268 -5.516715,0.484777 -5.828082,3.209344 -0.180445,1.578956 -0.05937,3.941456 0.269052,5.25 l 0.597134,2.379168 32.874651,0 32.874648,0 -0.91313,-4.064051 z m 0.96744,-12.801966 c 0.63706,-2.12631 1.15829,-4.15131 1.15829,-4.5 0,-0.348689 -15.92614,-0.63398 -35.391423,-0.63398 l -35.391421,0 -1.608579,4.020236 c -0.884719,2.21113 -1.60858,4.23613 -1.60858,4.5 0,0.26387 16.128771,0.479764 35.841712,0.479764 l 35.841711,0 1.15829,-3.86602 z m 16.09544,-4.13398 c 1.32025,0 1.03391,-2.315709 -0.92267,-7.461908 l -0.96955,-2.550115 -38.27247,0.624617 -38.272463,0.624618 -2.477273,2.381394 -2.477272,2.381394 29.477272,0.238455 c 16.212496,0.13115 31.952276,0.243092 34.977276,0.248759 4.26051,0.008 6.28876,-0.549127 9,-2.472072 l 3.5,-2.482378 -1.83968,2.835298 c -1.83309,2.82515 -1.82976,2.845642 0.92974,5.725944 2.48583,2.594646 2.93827,2.737833 4.41842,1.39832 0.90695,-0.820779 2.22485,-1.492326 2.92867,-1.492326 z"
       id="path3072"
       inkscape:connector-curvature="0" />
    <path
       style="fill:#010102"
       d="m 85.225272,170.3361 c -22.738389,-0.41155 -41.691907,-1.13413 -42.118928,-1.60575 -0.427022,-0.47161 -1.712181,-3.68863 -2.855909,-7.14894 L 38.17093,155.28993 48.468575,145.08141 C 60.975048,132.68317 64.008083,127.33758 62.255081,120.7833 61.626212,118.43203 59.328536,113.74939 57.149135,110.37743 47.388772,95.276255 47.723178,81.974133 58.118352,71.823517 l 3.926961,-3.834575 39.812187,-0.434297 39.81219,-0.434297 1.69905,6.111169 c 0.93448,3.361143 1.69906,6.288369 1.69906,6.504947 0,0.216578 -1.31843,0.939889 -2.92984,1.607357 -1.6439,0.680925 -3.619,2.665879 -4.5,4.522449 -2.64869,5.581703 -1.99675,10.70256 2.50155,19.64924 7.23179,14.38332 9.62034,29.36737 6.70002,42.03108 -0.67556,2.92946 -3.26306,9.37629 -5.75,14.32629 l -4.52173,9 -5,0.10575 c -2.75,0.0582 -23.60414,-0.23098 -46.342528,-0.64253 z m 52.444048,-6.54624 c 1.47721,-2.52066 3.96515,-8.25816 5.52878,-12.74999 4.9643,-14.26103 3.57336,-26.16459 -5.24364,-44.87482 l -5.04596,-10.707843 1.17832,-5.675923 c 1.17,-5.635892 1.15822,-5.692021 -1.67035,-7.958172 l -2.84867,-2.282249 -1.35799,2.561161 c -0.7469,1.408639 -1.58856,5.103915 -1.87037,8.211725 -0.55836,6.157686 0.22739,8.212229 8.60102,22.489681 5.4701,9.32679 6.71155,15.17719 5.16556,24.34289 -0.66089,3.91816 -2.72228,10.29702 -4.58086,14.17524 l -3.37926,7.05132 -11.28905,-0.002 c -6.20898,-9.6e-4 -25.239053,-0.33846 -42.289053,-0.75 l -31,-0.74824 41.444417,-0.5 41.444416,-0.5 1.92515,-3.2971 c 1.05883,-1.81341 1.67225,-3.55 1.36316,-3.85909 -0.77136,-0.77136 -81.906426,-2.16744 -83.27299,-1.43286 -0.602716,0.32398 -3.03847,2.26992 -5.412787,4.32432 l -4.316941,3.73527 1.814603,5.99322 1.814602,5.99323 18.598185,0.29495 c 10.229002,0.16222 30.616716,0.3969 45.306028,0.5215 l 26.70785,0.22656 2.68583,-4.58302 z m -1.32447,-20.72948 c 0.5122,-1.54687 0.77191,-2.96347 0.57712,-3.148 -0.1948,-0.18452 -17.90417,-0.65698 -39.354173,-1.0499 l -39,-0.71441 -2.42061,2.60846 c -1.331335,1.43466 -2.101708,2.92737 -1.71194,3.31714 0.570213,0.57021 69.569963,2.23114 78.555433,1.89094 1.7282,-0.0654 2.6899,-0.89812 3.35417,-2.90423 z m 1.72295,-10.1875 0,-4.5 -33.75,0.0102 -33.750003,0.0102 -1.667347,3.97018 -1.667348,3.97019 21.167348,0.29062 c 11.64204,0.15985 27.57985,0.39369 35.41735,0.51965 l 14.25,0.22902 0,-4.5 z m -72.081562,0.13197 c 1.144857,-1.85242 2.081559,-4.00376 2.081559,-4.78076 0,-0.777 1.35,-1.9223 3,-2.54511 2.5791,-0.9735 3,-1.64483 3,-4.78497 0,-4.66997 -1.535258,-7.52113 -4.049882,-7.52113 -2.128631,0 -5.940053,-5.28796 -5.94638,-8.25 -0.0027,-1.26156 -0.80926,-1.75 -2.889797,-1.75 -2.322937,0 -3.214667,-0.69249 -4.570216,-3.549096 -0.926287,-1.952005 -1.54006,-4.982667 -1.363941,-6.734805 0.240874,-2.396361 -0.113394,-3.269582 -1.429784,-3.524225 -1.295587,-0.250618 -1.75,0.31994 -1.75,2.197292 0,3.797624 3.661085,12.842904 7.14452,17.651644 6.235262,8.60753 7.238127,14.31531 3.833518,21.8184 -2.359536,5.19995 -2.353097,5.14079 -0.559597,5.14079 0.780142,0 2.355142,-1.51561 3.5,-3.36803 z m 72.071792,-7.88197 c -0.005,-0.6875 -1.10967,-3.6125 -2.45399,-6.5 l -2.44423,-5.25 -28.9762,0 -28.976202,0 0.943595,3.25 c 0.518977,1.7875 0.680114,4.47246 0.358081,5.96658 l -0.585515,2.71657 11.322114,0.31967 c 32.450407,0.91621 50.822017,0.73441 50.812347,-0.50282 z m -6.99023,-14.26987 c 0,-0.28593 -1.17321,-2.37835 -2.60713,-4.64984 l -2.60714,-4.12996 -29.625227,0.71553 c -16.293877,0.39354 -29.772028,0.86233 -29.951449,1.04175 -0.179421,0.17942 0.35218,1.94986 1.181335,3.93431 l 1.507555,3.60808 31.051026,0 c 17.07807,0 31.05103,-0.23394 31.05103,-0.51987 z m -6.67749,-14.730127 c -0.26795,-2.3375 -0.66101,-4.8125 -0.87346,-5.5 -0.29863,-0.966347 -7.74193,-1.25 -32.801091,-1.25 l -32.414808,0 -0.508594,2.660537 c -0.279726,1.463296 -0.06317,3.938296 0.481248,5.5 l 0.989842,2.83946 32.807019,0 32.807014,0 -0.48717,-4.249997 z m 1.02279,-13.25 1.5333,-4.5 -30.79973,0 c -16.939852,0 -32.84721,-0.280638 -35.349685,-0.623641 -4.274703,-0.585913 -4.638454,-0.449798 -6.012886,2.25 -0.804612,1.580503 -1.775264,3.886141 -2.157004,5.123641 l -0.694073,2.25 35.973385,0 35.973383,0 1.53331,-4.5 z m 16.54269,-4.168663 c 0.21339,-0.150691 -0.19917,-2.371122 -0.91682,-4.934291 l -1.3048,-4.660308 -38.58319,0.710775 c -38.361304,0.706687 -38.596623,0.72389 -40.920259,2.991434 l -2.337075,2.280659 35.168793,0.737741 35.168801,0.737741 2.554,-2.347544 2.55399,-2.347544 -1.22534,2.35173 c -1.08072,2.074149 -0.90452,2.686602 1.49279,5.188851 2.82164,2.945162 3.22227,2.91113 8.34911,-0.709244 z"
       id="path3070"
       inkscape:connector-curvature="0" />
  </g>
</svg>
